<?xml version="1.0" standalone="no"?>
<!DOCTYPE svg PUBLIC "-//W3C//DTD SVG 20010904//EN"
 "http://www.w3.org/TR/2001/REC-SVG-20010904/DTD/svg10.dtd">
<svg version="1.0" xmlns="http://www.w3.org/2000/svg"
 width="1280.000000pt" height="1226.000000pt" viewBox="0 0 1280.000000 1226.000000"
 preserveAspectRatio="xMidYMid meet">
<g transform="translate(0.000000,1226.000000) scale(0.100000,-0.100000)"
fill="#000000" stroke="none">
<path d="M3690 10194 c-1295 -1135 -2356 -2068 -2358 -2073 -4 -11 4867 -4487
4876 -4481 4 3 6 628 4 1390 -2 878 0 1390 7 1399 11 17 159 17 336 0 828 -79
1538 -482 1958 -1110 278 -417 408 -930 356 -1407 -28 -267 -101 -514 -235
-804 -30 -64 -54 -119 -54 -121 0 -2 21 -5 47 -6 26 -1 49 -4 52 -6 19 -20
-168 -317 -322 -510 l-96 -120 66 -3 66 -3 60 58 c32 32 102 112 155 178 148
185 147 184 190 175 20 -4 76 -11 124 -14 l86 -7 58 103 c76 136 78 138 131
138 l44 0 -22 -32 c-13 -17 -58 -69 -101 -115 -43 -45 -78 -86 -78 -91 0 -5
32 -12 70 -16 39 -3 102 -9 140 -12 51 -5 70 -11 70 -21 0 -8 -73 -88 -162
-179 -89 -90 -159 -166 -156 -169 3 -3 33 -8 67 -10 58 -4 63 -2 118 39 103
76 295 259 451 429 l153 166 67 3 66 3 69 90 c315 414 565 999 671 1575 48
262 60 404 60 705 0 282 -9 405 -45 634 -184 1170 -858 2216 -1874 2912 -680
466 -1556 752 -2403 786 -121 4 -167 10 -178 20 -12 12 -14 206 -14 1294 l0
1279 -82 -1 -83 0 -2355 -2065z"/>
</g>
</svg>
