<?xml version="1.0" encoding="utf-8"?>
<!-- Generator: Adobe Illustrator 27.5.0, SVG Export Plug-In . SVG Version: 6.00 Build 0)  -->
<svg version="1.1" id="_x3C_Layer_x3E_" xmlns="http://www.w3.org/2000/svg" xmlns:xlink="http://www.w3.org/1999/xlink" x="0px"
	 y="0px" viewBox="0 0 3200 1600" style="enable-background:new 0 0 3200 1600;" xml:space="preserve">
<rect style="fill:#FFFFFF;" width="3200" height="1600"/>
<g>
	<g>
		<path style="fill:#FCECDB;" d="M2832.304,1442.474l-2479.591-0.745c0,0-96.593-518.478,82.434-765.692
			c40.848-56.716,143.27-146.573,246.799-197.447c169.41-83.187,318.967-63.833,423.695-46.1
			c49.842,8.401,89.927,17.929,146.729,11.304c201.312-23.381,317.287-229.17,627.42-282.473
			c124.775-21.452,238.617-13.641,364.689,52.285c80.572,42.083,149.79,102.571,200.274,172.125
			c52.341,71.724,89.362,157.786,103.014,255.304c11.762,84.28,5.021,168.613-15.272,250.466
			c-11.557,46.673-16.791,98.788,2.055,143.212c25.828,61.11,88.085,88.962,150.989,118.842
			C2782.771,1199.896,2878.894,1250.966,2832.304,1442.474z"/>
		<g>
			<path style="fill:#F9DDBF;" d="M2532.494,891.499c20.293-81.853,27.034-166.186,15.272-250.466
				c-13.651-97.518-50.673-183.58-103.014-255.304c-50.484-69.554-119.702-130.042-200.274-172.125
				c-76.967-40.247-149.375-58.833-222.496-62.326v872.902h508.605C2516.574,982.188,2521.839,934.533,2532.494,891.499z"/>
			<path style="fill:#FFF3E9;" d="M2532.494,891.499c20.293-81.853,27.034-166.186,15.272-250.466
				c-13.651-97.518-50.673-183.58-103.014-255.304c-50.484-69.554-119.702-130.042-200.274-172.125
				c-66.844-34.954-130.248-53.568-193.668-60.149v873.525h480.735C2516.334,984.316,2521.602,935.491,2532.494,891.499z"/>
			<path style="fill:#F9DDBF;" d="M2523.855,994.823h-519.559c-9.334,0-17.799,4.46-23.908,11.681
				c-6.118,7.221-9.898,17.195-9.898,28.207h564.059C2529.134,1021.947,2525.716,1008.546,2523.855,994.823z"/>
			<path style="fill:#F9DDBF;" d="M2419.205,353.262h-374.663v-36.767h340.668c7.288,7.212,14.405,14.659,21.334,22.305
				c3.111,3.432,6.185,6.92,9.229,10.436C2416.924,350.574,2418.073,351.913,2419.205,353.262z"/>
			<path style="fill:#F9DDBF;" d="M2340.958,276.912c-10.087-8.141-20.472-15.986-31.147-23.492v752.527h31.147V276.912z"/>
		</g>
		<g>
			<path style="fill:#F9DDBF;" d="M1476.536,1442.752H772.412c0,0-4.505-42.833,21.022-93.332
				c12.403-24.535,17.846-191.293,20.165-356.266c2.463-174.552,1.419-347.106,1.419-347.106
				c27.878-27.179,209.659,193.779,292.51,201.287c82.857,7.508,239.99-174.184,250.502-186.196
				c10.511-12.013,32.171,4.505,32.171,4.505c0.879,41.271,15.564,179.439,32.585,328.073
				C1447.247,1207.424,1476.536,1442.752,1476.536,1442.752z"/>
			<path style="fill:#FFE3CA;" d="M1344.459,741.968c0,0-107.662,210.314-100.789,242.999c6.874,32.687,64.685,79.383,64.685,79.383
				L1344.459,741.968z"/>
			<path style="fill:#FFE3CA;" d="M861.953,727.284c0,0,26.545,153.18,46.815,154.294
				C929.039,882.69,861.953,727.284,861.953,727.284z"/>
			<path style="fill:#FFE3CA;" d="M861.953,693.55c0,0,212.697,209.325,254.436,204.889c41.737-4.436,92.726-22.394,92.726-22.394
				s-67.688,72.703-102.81,71.953C1057.45,946.955,861.953,693.55,861.953,693.55z"/>
			<path style="fill:#F4D4B5;" d="M855.841,686.744c3.378,3.378,215.091,237.947,251.69,241.723
				c36.6,3.773,116.396-66.047,116.396-66.047s-105.8,115.368-133.339,118.496C1063.049,984.043,855.841,686.744,855.841,686.744z"
				/>
			<path style="fill:#F4D4B5;" d="M1293.906,810.619c0,0-136.467,186.938-169.585,190.316c0,0,15.997,31.531,60.134,18.018
				C1228.591,1005.44,1293.906,810.619,1293.906,810.619z"/>
			<path style="fill:#FFE3CA;" d="M1124.321,1000.935c0,0-16.862-5.767-4.571-19.995c12.292-14.229,133.605-123.355,169.05-163.392
				C1288.8,817.549,1169.156,1002.874,1124.321,1000.935z"/>
			<path style="fill:#EFCBAB;" d="M1390.201,665.644c-1.342,1.227-15.461,24.481,0.553,255.741
				c1.389,20.047-10.946,80.74-13.413,60.798c-15.867-128.268-30.507-240.215-30.507-240.215s-13.693,106.359-28.128,223.566
				c-2.751,22.335-8.342,43.861-16.433,64.161c-16.463,41.311-60.283,64.732-103.767,55.413
				c-64.232-13.765-145.273-29.916-205.324-78.59c-60.717-49.212-113.009-191.055-135.113-258.036
				c-1.559-4.725-8.583-3.308-8.184,1.652c3.82,47.642,10.609,134.576,16.723,224.749c2.004,29.559-15.517,40.474-32.164,15.966
				c0,0-4.469-27.372-4.471-27.392l-14.954-317.41c-2.319,164.972-9.181,678.837-21.584,703.372
				c-25.527,50.499-21.022,93.332-21.022,93.332h704.124C1476.536,1442.752,1414.662,879.35,1390.201,665.644z"/>
		</g>
		<path style="fill:#CE9A78;" d="M1503.253,1437.627H732.67v-5.047c0-35.56,28.827-64.387,64.387-64.387h641.809
			c35.561,0,64.388,28.827,64.388,64.387V1437.627z"/>
		<g>
			<g>
				<g>
					<path style="fill:#CE9A78;" d="M410.137,1284.495c-0.014,0-0.027,0-0.041,0c-1.555-0.02-2.797-1.153-2.775-2.531
						c1.581-98.164-36.378-173.64-36.762-174.391c-0.642-1.257-0.52-4.062,3.57-4.419c3.576-0.312,5.795,0.469,6.436,1.725
						c0.098,0.19,8.565,18.151,17.97,49.371c8.673,28.785,15.252,75.916,14.416,127.785
						C412.93,1283.401,411.674,1284.495,410.137,1284.495z"/>
				</g>
				<g>
					<path style="fill:#CE9A78;" d="M494.791,1284.495c-0.015,0-0.027,0-0.041,0c-1.557-0.02-2.799-1.153-2.776-2.531
						c1.582-98.164-36.378-173.64-36.761-174.391c-0.643-1.257-0.521-4.062,3.57-4.419c3.576-0.312,5.794,0.469,6.436,1.725
						c0.099,0.19,8.565,18.151,17.971,49.371c8.672,28.785,15.252,75.916,14.416,127.785
						C497.583,1283.401,496.326,1284.495,494.791,1284.495z"/>
				</g>
				<g>
					<path style="fill:#CE9A78;" d="M385.071,1137.718c-1.348,0-2.538-0.86-2.773-2.076c-0.263-1.359,0.768-2.649,2.301-2.882
						c2.439-0.369,60.011-8.964,85.781-1.793c1.483,0.413,2.309,1.813,1.843,3.129c-0.465,1.315-2.046,2.05-3.53,1.634
						c-24.477-6.81-82.562,1.863-83.146,1.952C385.388,1137.705,385.228,1137.718,385.071,1137.718z"/>
				</g>
				<g>
					<path style="fill:#CE9A78;" d="M391.651,1154.25c-1.347,0-2.538-0.86-2.772-2.076c-0.262-1.359,0.769-2.649,2.301-2.882
						c2.439-0.368,60.011-8.966,85.781-1.793c1.483,0.412,2.31,1.813,1.844,3.129c-0.467,1.315-2.047,2.05-3.531,1.634
						c-24.486-6.814-82.56,1.863-83.145,1.951C391.969,1154.237,391.809,1154.25,391.651,1154.25z"/>
				</g>
			</g>
			<path style="fill:#E5BD9E;" d="M406.756,1284.498h173.488c0,0-4.041-16.762-104.515-14.266
				C404.628,1271.999,406.756,1284.498,406.756,1284.498z"/>
			<g>
				<path style="fill:#E5BD9E;" d="M392.635,1435.014c20.115-89.533,14.943-144.474,14.918-145.167
					c-0.051-1.378,2.839-2.63,4.393-2.674c1.574-0.024,8.518-0.407,9.32,0.772c1.053,1.545,5.103,69.236-24.876,147.068H392.635z"/>
			</g>
			<g>
				<path style="fill:#E5BD9E;" d="M539.912,1435.014c-20.114-89.533-14.941-144.474-14.917-145.167
					c0.051-1.378-2.839-2.63-4.393-2.674c-1.574-0.024-8.517-0.407-9.32,0.772c-1.053,1.545-5.103,69.236,24.876,147.068H539.912z"
					/>
			</g>
			<g>
				<path style="fill:#B27F5D;" d="M586.72,1435.014c-20.116-89.533-14.943-144.474-14.918-145.167
					c0.052-1.378-2.839-2.63-4.394-2.674c-1.574-0.024-8.516-0.407-9.319,0.772c-1.053,1.545-5.104,69.236,24.875,147.068H586.72z"
					/>
			</g>
			<g>
				<path style="fill:#B27F5D;" d="M443.565,1435.014c20.116-89.533,14.943-144.474,14.917-145.167
					c-0.05-1.378,2.84-2.63,4.395-2.674c1.573-0.024,8.516-0.407,9.32,0.772c1.051,1.545,5.103,69.236-24.877,147.068H443.565z"/>
			</g>
			<path style="fill:#CE9A78;" d="M581.225,1289.847H405.979c-1.472,0-2.675-1.203-2.675-2.674l0,0c0-1.472,1.203-2.675,2.675-2.675
				h175.245c1.472,0,2.676,1.203,2.676,2.675l0,0C583.9,1288.644,582.696,1289.847,581.225,1289.847z"/>
		</g>
		<g>
			<path style="fill:#B27F5D;" d="M1151.857,1223.026h9.422c1.472,0,2.676-1.204,2.676-2.675l0,0c0-1.471-1.204-2.674-2.676-2.674
				h-0.98c0,0-3.434-14.231-82.582-14.515c-0.266-47.06-6.478-89.196-14.473-115.734c-9.405-31.219-17.872-49.18-17.971-49.371
				c-0.642-1.256-2.859-2.035-6.436-1.724c-4.091,0.357-4.213,3.162-3.57,4.418c0.123,0.242,4.125,8.203,9.445,22.137
				c-22.104-3.81-58.498,0.188-73.43,2.132c-6.079-17.249-10.592-26.823-10.663-26.963c-0.642-1.256-2.86-2.035-6.437-1.724
				c-4.09,0.357-4.212,3.162-3.57,4.418c0.384,0.751,38.344,76.228,36.762,174.391c-0.004,0.242,0.044,0.473,0.112,0.695
				c-0.797,1.118-0.677,1.84-0.677,1.84h-0.776c-1.471,0-2.675,1.203-2.675,2.674l0,0c0,1.471,1.204,2.675,2.675,2.675h1.573
				c0.025,0.692,5.197,55.633-14.918,145.167h3.755c27.354-71.014,26.378-133.575,25.196-145.167h36.896
				c0.026,0.692,5.199,55.633-14.917,145.167h3.755c27.354-71.014,26.377-133.575,25.197-145.167h38.443
				c-1.18,11.592-2.156,74.153,25.197,145.167h3.754c-20.114-89.534-14.941-144.475-14.917-145.167h32.772
				c-1.18,11.592-2.156,74.153,25.196,145.167h3.756C1146.659,1278.659,1151.831,1223.719,1151.857,1223.026z M1046.773,1068.412
				c1.224,3.359,2.494,6.995,3.785,10.883c-22.707-3.688-59.676,0.531-73.732,2.394c-1.325-4.226-2.62-8.167-3.865-11.824
				C988.921,1067.843,1026.88,1063.831,1046.773,1068.412z M978.591,1087.429c-0.09-0.296-0.179-0.583-0.268-0.878
				c14.905-1.927,53.297-6.168,73.995-1.834c9.246,29.155,18.942,70.75,19.704,118.453c-5.116,0.023-10.513,0.101-16.237,0.242
				c-37.982,0.944-55.064,4.949-62.74,8.477C993.555,1161.338,987.076,1115.598,978.591,1087.429z"/>
			<g>
				<path style="fill:#2C3A64;" d="M989.49,894.106c-0.355-1.369-4.72-16.003-27.543-11.76c0,0,11.434-1.141,14.443,3.33
					c0,0-8.926-4.37-14.671-1.055c-5.745,3.314-6.975,14.939-6.222,18.507c0.753,3.567,6.727,14.28,10.863,14.387
					c1.566,0.041,3.255-0.438,4.749-1.046c-0.683,1.859-1.306,3.883-1.839,6.105c-4.926,20.557,8.414,36.623,15.622,32.924
					c4.622-2.372,9.406,7.167,9.406,7.167l37.583-50.639C1031.883,912.027,1006.339,879.674,989.49,894.106z"/>
				<path style="fill:#233862;" d="M1216.671,1326.787c0,0,18.854,19.667,23.527,24.49c4.675,4.823,22.214,2.697,27.038,16.916
					h-47.797c0,0-11.84-9.023-30.257-8.584c0,0-3.508-13.594,0-18.856c3.508-5.262,4.797-13.966,4.797-13.966H1216.671z"/>
				<path style="fill:#233862;" d="M1189.183,1359.609l2.413,8.584h16.881v-7.27
					C1208.477,1360.924,1199.049,1357.854,1189.183,1359.609z"/>
				<path style="fill:#233862;" d="M1187.623,1189.539c0,0-0.879,89.331,6.356,139.181h22.691l16.009-94.125L1187.623,1189.539z"/>
				<path style="fill:#365DA4;" d="M1283.846,1328.719h-22.692c0,0-0.007-0.006-0.013-0.014
					c-1.086-1.124-70.643-73.227-81.502-118.52c0,0-6.5-0.586-14.32-0.243c-2.275,0.104-4.67,0.282-7.051,0.578
					c-10.523,1.315-148.429,6.36-155.664-0.874c-7.234-7.235-4.334-48.898-4.334-48.898l13.557-7.183l14.325-7.591
					c0,0,159.045,2.5,175.62,14.997C1218.347,1173.47,1257.207,1256.682,1283.846,1328.719z"/>
				<path style="fill:#2D427C;" d="M1282.916,1326.213c0,0,19.784,20.241,24.457,25.064c4.676,4.823,22.215,2.697,27.039,16.916
					h-47.797c0,0-11.84-9.023-30.257-8.584c0,0-3.509-13.594,0-18.856c3.508-5.262,3.22-13.685,3.22-13.685L1282.916,1326.213z"/>
				<path style="fill:#2D427C;" d="M1256.358,1359.609l2.412,8.584h16.882v-7.27
					C1275.652,1360.924,1266.225,1357.854,1256.358,1359.609z"/>
				<path style="fill:#2D427C;" d="M1165.318,1209.942c-2.275,0.104-4.67,0.282-7.051,0.578
					c-10.523,1.315-148.429,6.36-155.664-0.874c-7.234-7.235-4.334-48.898-4.334-48.898l13.557-7.183l22.784,9.663
					C1034.61,1163.229,1031.236,1206.232,1165.318,1209.942z"/>
				<path style="fill:#EA8E50;" d="M1148.807,1146.475c0,0-7.509-2.369-13.394-2.058c-5.884,0.312-14.275-5.05-14.275-5.05
					s-30.776-19.606-37.463-26.345c-14.344-14.456-28.687-89.535-41.005-83.716c0,0-16.38,9.461-14.177,32.931
					c2.203,23.469,24.177,60.259,40.669,69.266c13.063,7.134,50.739,18.076,50.739,18.076c8.62,2.236,7.503,6.015,13.815,7.614
					c2.256,0.57,8.039-1.445,11.406-0.129c12.272,4.801,12.399,0.965,12.399,0.965
					C1156.682,1148.717,1148.807,1146.475,1148.807,1146.475z"/>
				<path style="fill:#FFB07B;" d="M1030.9,996.3c-14.28,0.204-29.218-2.903-42.747-4.692c2.493-4.17,5.466-16.181,6.308-32.763
					v-0.06l5.032,0.269l23.809,1.271c0,0-0.025,0.349-0.071,0.953c-0.224,3.21-0.935,13.721-0.815,19.641
					c0.046,2.275,1.229,7.189,1.592,7.427C1026.605,990.581,1028.322,994.274,1030.9,996.3z"/>
				<path style="fill:#EA8E50;" d="M1022.412,980.916c-14.431-1.711-23.646-14.386-27.954-22.074
					c-0.053-0.093-0.104-0.185-0.158-0.276l5.19,0.487l23.738,2.223C1023.005,964.485,1022.294,974.996,1022.412,980.916z"/>
				<path style="fill:#FFB07B;" d="M1024.456,969.841c0,0-33.768-0.315-33.248-21.341c0.519-21.025-3.489-35.227,18.092-35.915
					c21.583-0.689,25.572,7.438,27.104,14.499C1037.939,934.144,1033.253,969.381,1024.456,969.841z"/>
				<path style="fill:#2C3A64;" d="M1035.703,915.367c-5.055-6.459-9.033-5.173-11.291-3.328
					c-18.188-10.619-30.462,4.07-30.462,4.07c-2.648,15.027-13.749,23.389-13.749,23.389s6.054,3.959,20.33,0.678
					c4.361-1.002,8.31-3.982,11.693-7.631c-5.988,9.473-13.979,16.203-13.979,16.203c17.144-7.394,24.555-30.781,25.296-33.255
					c2.014,1.903,5.972,6.028,7.107,10c1.545,5.397,2.018,16.438,5.239,16.146C1035.888,941.64,1043.283,925.054,1035.703,915.367z"
					/>
				<path style="fill:#599DAD;" d="M1064.026,1066.115c0,0,15.102,34.016,20.019,35.697c4.918,1.682-2.098,20.134-5.98,24.372
					s-23.671,10.495-31.901-3.477S1064.026,1066.115,1064.026,1066.115z"/>
				<path style="fill:#6BB7BF;" d="M1084.357,1150.072c-16.118,2.299-44.242,4.274-49.751,13.155
					c-5.339,8.616-38.46,2.988-43.058-2.461c-0.043-0.051-0.094-0.11-0.128-0.171c-0.085-0.109-0.153-0.221-0.213-0.332
					c-2.886-5.585,5.994-51.027,1.388-58.732c-3.457-5.781-15.419-37.635-21.617-55.958c-2.053-6.053-3.466-10.643-3.738-12.312
					c-1.099-6.718-5.237-30.839,11.383-37.915c0,0,8.055-3.466,8.711-6.31c0.161-0.672,0.179-1.728,0.195-2.911
					c0.035-3.39-0.051-7.876,2.486-7.876c0.35,0,0.741,0.084,1.192,0.264c4.896,1.967,10.081,6.794,18.451,6.352
					c8.378-0.434,15.606-4.164,16.705-1.754s-1.949,5.637,0,7.221c1.942,1.584,39.763,40.988,40.13,66.83
					c0.008,1.013-0.921,19.218-0.137,26.403c0.034,0.392,2.69,18.902,4.062,25.577c0.485,2.359,0.97,4.479,1.456,6.276
					c0.877,3.227,1.753,5.466,2.613,6.325C1081.07,1128.369,1100.475,1147.773,1084.357,1150.072z"/>
				<path style="fill:#599DAD;" d="M1084.357,1150.072c-16.118,2.299-44.242,4.274-49.751,13.155
					c-5.339,8.616-38.46,2.988-43.058-2.461c-0.043-0.051-0.094-0.11-0.128-0.171c-0.085-0.109-0.153-0.221-0.213-0.332
					c-2.886-5.585,5.994-51.027,1.388-58.732c-3.457-5.781-15.368-58.035-15.368-58.035c14.168,3.9,46.285-10.191,83.748,55.217
					c0.443,2.18,4.981,8.787,10.899,16.706c0.877,3.227,1.753,5.466,2.613,6.325
					C1081.07,1128.369,1100.475,1147.773,1084.357,1150.072z"/>
				<path style="fill:#599DAD;" d="M1000.657,995.344c-5.262-1.31-22.035,0-22.035,0s8.058-3.46,8.716-6.309
					c0.157-0.67,0.178-1.723,0.19-2.907c0.849,3.46,3.427,5.098,10.333,5.427S1005.919,996.652,1000.657,995.344z"/>
				<path style="fill:#FFB07B;" d="M1154.026,1135.25c-3.359-2.326-12.201-1.05-17.188,0c-4.984,1.049-14.964,1.018-14.966,1.018
					c-5.498-1.763-60.312-19.497-67.557-28.117c-9.935-11.822-29.702-53.668-45.415-76.888c-7.489-11.07-14.06-17.909-18.212-15.26
					c0,0-10.596,5.041-6.813,27.452c0.204,1.251,0.461,2.561,0.769,3.926c5.773,25.76,41.616,83.604,61.089,91.586
					c19.473,7.98,75.629,7.848,75.629,7.848s7.586,0.059,12.834,1.371c5.248,1.312,12.68-1.496,14.386-1.496
					c1.705,0,5.715,5.053,6.737,4.815C1160.43,1150.318,1158.323,1138.225,1154.026,1135.25z"/>
				<path style="fill:#2D427C;" d="M1261.153,1328.719c0,0-0.007-0.006-0.013-0.014c-1.086-1.124-70.643-73.227-81.502-118.52
					c0,0,17.082-4.75,27.388,8.84C1217.334,1232.621,1261.153,1328.719,1261.153,1328.719z"/>
				<path style="fill:#6BB7BF;" d="M988.783,999.082c0,0,10.034,5.068,17.636,16.691c7.603,11.622,42.095,80.147,50.008,85.171
					c7.911,5.024,26.821,10.18,24.757,15.646c-2.064,5.465-15.217,31.242-22.355,34.327c-7.14,3.085-37.054-4.257-46.95-16.642
					c-9.897-12.384-46.942-110.196-37.52-125.518C983.78,993.437,988.783,999.082,988.783,999.082z"/>
				<path style="fill:#EA8E50;" d="M1133.717,1157.193c0,0,8.747,2.196,9.953,3.119c0,0,1.029-1.17-0.603-2.271
					c-0.869-0.586-3.399-2.2-3.155-3.122C1140.158,1153.998,1133.717,1157.193,1133.717,1157.193z"/>
			</g>
		</g>
		<g>
			<path style="fill:#599DAD;" d="M1111.787,531.845h0.877c3.385,0,6.156-4.61,6.156-10.257v-86.826
				c-4.328-0.758-8.714-1.52-13.18-2.273v89.099C1105.641,527.234,1108.403,531.845,1111.787,531.845z"/>
			<path style="fill:#6BB7BF;" d="M1108.799,496.797c-48.017,0-86.941,41.159-86.941,91.932h173.882
				C1195.739,537.956,1156.814,496.797,1108.799,496.797z"/>
			<path style="fill:#86D1CD;" d="M1115.725,497.918c-2.498-0.545-5.047-0.832-7.637-0.832c-31.283,0-56.645,41.029-56.645,91.643
				h15.271C1066.715,542.307,1088.052,503.951,1115.725,497.918z"/>
		</g>
		<g>
			<polygon style="fill:#D39E7A;" points="2173.438,1440.967 1937.112,1440.967 1974.189,1138.994 2210.516,1138.994 			"/>
			<polygon style="fill:#EFCBAB;" points="2164.144,1440.967 1927.818,1440.967 1964.896,1138.994 2201.222,1138.994 			"/>
			<polygon style="fill:#F9DDBF;" points="2152.201,1425.334 1943.6,1425.334 1977,1153.314 2185.602,1153.314 			"/>
			<polygon style="fill:#EFCBAB;" points="2171.704,1297.617 1955.656,1297.617 1957.526,1282.383 2173.574,1282.383 			"/>
			<polygon style="fill:#E5BD9E;" points="1959.371,1183.992 1964.896,1138.994 2009.895,1138.994 			"/>
			<polygon style="fill:#E5BD9E;" points="2195.696,1183.992 2201.222,1138.994 2156.223,1138.994 			"/>
			<polygon style="fill:#E5BD9E;" points="1972.813,1441.006 1927.814,1441.006 1933.339,1396.008 			"/>
			<polygon style="fill:#E5BD9E;" points="2119.141,1441.006 2164.139,1441.006 2169.664,1396.008 			"/>
		</g>
		<g>
			<polygon style="fill:#D39E7A;" points="2194.597,1440.976 2015.059,1440.976 2043.227,1211.565 2222.764,1211.565 			"/>
			<polygon style="fill:#EFCBAB;" points="2186.819,1440.976 2007.282,1440.976 2035.45,1211.565 2214.987,1211.565 			"/>
			<polygon style="fill:#F9DDBF;" points="2177.747,1429.1 2019.271,1429.1 2044.646,1222.445 2203.121,1222.445 			"/>
			<polygon style="fill:#EFCBAB;" points="2192.563,1332.072 2028.431,1332.072 2029.852,1320.499 2193.984,1320.499 			"/>
			<polygon style="fill:#E5BD9E;" points="2031.253,1245.752 2035.45,1211.565 2069.636,1211.565 			"/>
			<polygon style="fill:#E5BD9E;" points="2210.791,1245.752 2214.987,1211.565 2180.802,1211.565 			"/>
			<polygon style="fill:#E5BD9E;" points="2041.464,1441.006 2007.278,1441.006 2011.476,1406.821 			"/>
			<polygon style="fill:#E5BD9E;" points="2152.631,1441.006 2186.815,1441.006 2191.014,1406.821 			"/>
		</g>
		<g>
			<g>
				<path style="fill:#FFB27D;" d="M536.211,1404.844c-2.789,5.152,4.12,9.65,12.584,13.78c8.465,4.131,5.094,4.784,16.027,12
					s17.071,6.004,18.614,4.77c1.371-1.094-3.188-5.673-7.986-10.696c-0.604-0.629-1.206-1.27-1.808-1.909
					c-5.367-5.732-6.54-13.247-9.343-20.946c-2.654-7.293,10.511-31.078,10.511-31.078l-21.272-7.884c0,0-1.877,20.646-4.755,28.029
					c-1.531,3.931-6.192,6.462-8.773,9.15C538.612,1401.524,537.191,1403.028,536.211,1404.844z"/>
				<path style="fill:#C65447;" d="M548.795,1418.624c8.465,4.131,5.094,4.784,16.027,12s17.071,6.004,18.614,4.77
					c1.371-1.094-3.188-5.673-7.986-10.696l-0.135,0.062c0,0-9.544-0.735-18.044-7.465c-6.93-5.482-12.508-13.41-17.261-17.234
					c-1.398,1.465-2.819,2.969-3.8,4.784C533.422,1409.996,540.331,1414.494,548.795,1418.624z"/>
			</g>
			<path style="fill:#ED7D2B;" d="M577.652,1375.158c-7.41,14.858-12.658,24.761-12.658,24.761s-18.154-6.126-18.688-17.32
				c0,0,5.256-31.691,13.125-61.063c4.969-18.545,10.99-36.158,17.38-44.296c0,0-130.434-26.48-117.025-50.004
				c13.416-23.522,67.728-25.527,67.728-25.527s82.769,16.165,96.478,43.352C632.175,1261.293,597.315,1335.696,577.652,1375.158z"
				/>
			<g>
				<path style="fill:#FFB27D;" d="M622.641,1428.82c0.251,5.854,8.489,6.168,17.873,5.369c9.385-0.8,6.826,1.492,19.914,2.074
					c13.087,0.582,17.733-3.607,18.424-5.459c0.615-1.643-5.648-3.232-12.344-5.082c-0.843-0.229-1.688-0.471-2.533-0.71
					c-7.547-2.167-12.41-8.015-18.767-13.185c-6.021-4.896-13.45-22.183-13.45-22.183l-17.861-1.354c0,0,7.065,15.507,9.692,22.18
					c1.546,3.924,0.692,8.662-0.143,12.293C622.998,1424.738,622.55,1426.759,622.641,1428.82z"/>
				<path style="fill:#C65447;" d="M640.514,1434.189c9.385-0.8,6.826,1.492,19.914,2.074c13.087,0.582,17.733-3.607,18.424-5.459
					c0.615-1.643-5.648-3.232-12.344-5.082l-0.084,0.121c0,0-8.569,4.268-19.318,2.854c-8.762-1.148-17.616-5.091-23.659-5.934
					c-0.448,1.975-0.896,3.995-0.806,6.057C622.892,1434.674,631.13,1434.988,640.514,1434.189z"/>
			</g>
			<path style="fill:#F99746;" d="M640.815,1405.244c0,0-2.281,1.245-7.099,1.989c-8.504,1.319-17.987-3.752-17.987-3.752
				s-44.008-72.958-46.856-91.248c-2.855-18.278-1.357-34.438-9.437-35.192c-0.509-0.047-1.376-0.056-2.574-0.037h-0.094
				c-46.778-1.764-84.412-55.848-84.412-55.848l-6.515-12.501c0,0,103.409,4.902,124.762,19.571
				C611.966,1242.896,640.815,1405.244,640.815,1405.244z"/>
			<path style="fill:#F4A269;" d="M642.773,1116.363c0,0-49.737,29.375-61.299,25.996c-11.57-3.371-69.31-29.536-76.495-41.256
				c-7.192-11.72,6.085-30.782,6.085-30.782s6.007-2.878,38.727,26.871c20.811,18.921,31.57,22.989,40.836,22.65
				c4.962-0.18,19.348-4.076,31.623-7.657c0.007,0,0.014-0.008,0.021-0.008c0.038-0.008,0.075-0.016,0.113-0.03
				c1.262-0.36,2.492-0.728,3.693-1.081c0.023-0.007,0.045-0.015,0.068-0.015c8.867-2.628,15.804-4.82,15.804-4.82l0.496,1.651
				L642.773,1116.363z"/>
			<path style="fill:#B5453C;" d="M503.462,981.106c-4.589-3.029-10.285-3.706-14.298-3.736c1.1-0.993,3.15-1.246,3.15-1.246
				c-2.454-0.533-8.152,1.557-8.152,1.557c-33.598-15.587-42.402,34.826-42.465,46.672c-0.066,11.843-0.885,25.427-18.805,34.858
				c-35.258,18.558-9.103,56.804-9.103,56.804c0.256,0.175,21.501,27.484,21.501,27.484c-0.234-9.591,39.598-56.963,63.55-70.499
				c6.134-7.852,9.089-22.247,9.313-23.381c-1.732,11.455-4.134,17.785-6.137,21.306
				C522.641,1054.337,515.625,989.133,503.462,981.106z"/>
			<path style="fill:#FFB27D;" d="M462.269,1061.893c0,0,8.742,0.543,18.37,1.457c6.543,0.621,13.914,1.195,17.602,2.736
				c9.113,3.81,8.157,19.945-10.966,16.957C468.15,1080.055,460.928,1066.678,462.269,1061.893z"/>
			<path style="fill:#FFB27D;" d="M497.433,1073.659c0.111,0.06,2.728,13.881-9.794,13.328c-8.22-0.363-25.948-10.31-24.383-17.348
				c0.744-3.345,6.957-12.024,8.205-31.837l1.497,0.399l25.159,6.749c0,0-1.114,7.984-1.636,15.543
				C496.041,1066.839,496.025,1072.885,497.433,1073.659z"/>
			<path style="fill:#F4A269;" d="M498.117,1044.951c0,0-1.114,7.984-1.636,15.543c-14.241-1.354-20.914-14.871-23.523-22.292
				L498.117,1044.951z"/>
			<path style="fill:#ED7D2B;" d="M556.769,1277.004c-18.081,0.273-107.735,6.298-121.038-19.42
				c-3.658-7.081-3.441-13.755-1.084-19.77l37.71-16.658C472.356,1221.156,509.99,1275.24,556.769,1277.004z"/>
			<path style="fill:#B5453C;" d="M470.51,1035.251c0,0-6.689-12.313-7.81-22.534c-0.801-7.297,4.654-33.785,31.262-28.144
				c0,0,7.751,1.289,14.755,6.731c5.569,4.329,13.421,13.394,2.453,36.095l-2.97,7.717L470.51,1035.251z"/>
			<path style="fill:#FFB27D;" d="M502.404,1052.426c0,0-33.793-1.693-32.414-22.722c1.379-21.029-2.055-35.41,19.58-35.218
				c21.635,0.191,25.297,8.491,26.544,15.621C517.361,1017.239,511.231,1052.325,502.404,1052.426z"/>
			<path style="fill:#B5453C;" d="M504.979,994.996c0,0-10.888,24.053-25.315,26.755c-14.427,2.701-20.326-1.509-20.326-1.509
				s11.456-7.918,14.72-22.854C474.058,997.388,498.791,982.79,504.979,994.996z"/>
			<path style="fill:#1C468A;" d="M522.22,1190.533c-3.873-2.257-7.276-4.556-8.328-6.865c-0.823-1.803-0.751-5.775-0.21-10.838
				c1.524-14.295,6.826-37.277,6.535-44.62c-0.087-2.188-0.173-5.984-0.292-10.614c14.236-7.957,18.794-33.01,18.794-33.01
				c-6.119-7.529-20.1-13.1-26.295-15.291c-5.469-2.182-14.184-3.207-14.184-3.207s3.661,13.467-12.105,13.467
				c-15.773,0-23.866-17.66-23.866-17.66s-7.258,36.98-12.497,68.342c-0.221,1.324-0.44,2.635-0.655,3.936
				c-2.648,16.131-4.633,30.239-4.633,36.201c0,10.924-9.026,36.047-13.339,54.138c-2.739,11.456-3.586,20.089,0.938,20.515
				c11.666,1.101,51.466-23.072,63.647-30.224c5.364-3.151,12.909-4.638,20.09-5.823c9.126-1.502,17.664-2.506,20.399-5.775
				C539.464,1199.315,529.907,1195.008,522.22,1190.533z"/>
			<path style="fill:#FFB27D;" d="M550.428,1216.037c-0.711-2.271-12.579-12.134-18.059-12.235
				c-2.497-0.046-6.406-0.484-9.926-0.948l0,0c0,0-48.176-25.796-50.617-28.935c-2.441-3.14-7.77-98.79-13.874-100.385
				c0,0-12.005-7.29-23.613,6.54c-11.607,13.83,5.538,111.159,22.737,116.239c19.094,5.638,59.491,14.956,59.544,14.968
				c2.157,0.875,4.489,1.926,6.551,3.087C529.021,1217.661,551.139,1218.31,550.428,1216.037z"/>
			<path style="fill:#B5453C;" d="M502.555,996.846c0,0,6.536,5.969,7.861,11.435c1.326,5.467,1.348,16.54,4.586,16.38
				c0,0,8.081-16.304,0.887-26.311C508.263,987.739,502.555,996.846,502.555,996.846z"/>
			<path style="fill:#1C468A;" d="M462.269,1061.893c0,0-19.498,1.611-26.659,9.722c-7.16,8.109-14.411,30.696-14.411,30.696
				s20.034,24.434,46.195,17.632L462.269,1061.893z"/>
			<path style="fill:#F4A269;" d="M665.884,1101.787c-5.784,1.71-9.711,10.148-13.813,10.786c-4.05,0.628-9.298,3.79-9.298,3.79
				l-2.008-7.432l-0.57-2.121c0,0,8.471-9.879,14.994-10.172c1.628-0.068,3.824,0.023,6.142,0.281h0.01
				C669.485,1098.063,669.019,1100.86,665.884,1101.787z"/>
			<g>
				<path style="fill:#B5453C;" d="M667.604,1089.083l2.146,1.725l-28.174,35.05c-0.386,0.479-1.086,0.555-1.563,0.17l-0.64-0.514
					c-0.354-0.284-0.409-0.801-0.126-1.153L667.604,1089.083z"/>
				<path style="fill:#B27F5D;" d="M676.752,1079.9c0,0-3.998,4.974-5.794,8.507l-1.208,2.4l-2.146-1.725
					C667.604,1089.083,672.95,1084.631,676.752,1079.9z"/>
			</g>
			<path style="fill:#FFB27D;" d="M664.153,1103.914c0.18,1.17-8.143,2.79-11.431,5.385c-3.288,2.594-8.842-0.25-8.842-0.25
				c-0.934-0.113-1.985-0.144-3.115-0.117c-6.393,0.113-15.336,2.563-20.865,3.936c11.383-3.023,20.295-6.057,20.295-6.057
				s8.471-9.879,14.994-10.172c1.628-0.068,3.824,0.023,6.142,0.281c-3.398,0.734-13.54,6.877-8.2,6.437
				C658.473,1102.906,663.914,1102.354,664.153,1103.914z"/>
			<path style="fill:#F99746;" d="M577.652,1375.158c-7.41,14.858-12.658,24.761-12.658,24.761s-18.154-6.126-18.688-17.32
				c0,0,5.256-31.691,13.125-61.063C562.997,1336.695,568.928,1357.589,577.652,1375.158z"/>
		</g>
		<g>
			<path style="fill:#916140;" d="M772.112,1249.811H549.368c-1.211,0-2.193-0.981-2.193-2.192v-5.801
				c0-1.211,0.982-2.192,2.193-2.192h222.744c1.211,0,2.192,0.981,2.192,2.192v5.801
				C774.305,1248.829,773.323,1249.811,772.112,1249.811z"/>
			<g>
				<path style="fill:#916140;" d="M526.704,1436.328l-0.843-0.002c-1.388-0.004-2.414-1.295-2.105-2.648l104.288-456.937h14.733
					l-114.114,458.062C528.438,1435.701,527.63,1436.33,526.704,1436.328z"/>
			</g>
			<g>
				<path style="fill:#916140;" d="M717.769,1436.328l-0.842-0.002c-1.389-0.004-2.414-1.295-2.105-2.648l104.287-456.937h14.732
					l-114.114,458.062C719.503,1435.701,718.695,1436.33,717.769,1436.328z"/>
			</g>
			<polygon style="fill:#CE9A78;" points="774.305,1249.811 574.727,1249.811 634.472,976.741 835.958,976.741 			"/>
			<polygon style="fill:#E5BD9E;" points="762.021,1232.242 597.992,1232.242 646.875,995.453 812.692,995.453 			"/>
			<polygon style="fill:#C6916D;" points="830.85,997.494 629.739,997.494 634.344,976.741 830.85,976.741 			"/>
			<g>
				<g>
					<path style="fill:#C6916D;" d="M702.005,1434.263l-67.661-457.521h16.748l55.255,457.437c0.14,1.101-0.794,2.141-1.919,2.141
						h-0.016C703.175,1436.318,702.178,1435.467,702.005,1434.263z"/>
				</g>
				<path style="fill:#916140;" d="M634.344,976.741l-4.604,20.737l69.518,435.655c0.299,1.872,1.861,3.185,3.791,3.185h1.379
					L634.344,976.741z"/>
				<g>
					<path style="fill:#C6916D;" d="M886.824,1434.263l-65.647-457.521h14.734l55.254,457.437c0.14,1.101-0.793,2.141-1.919,2.141
						h-0.016C887.994,1436.318,886.997,1435.467,886.824,1434.263z"/>
				</g>
				<path style="fill:#916140;" d="M821.178,976.741l-6.619,20.737l69.518,435.655c0.299,1.872,1.862,3.185,3.791,3.185h1.379
					L821.178,976.741z"/>
				<polygon style="fill:#C6916D;" points="846.339,1150.18 664.156,1150.18 665.13,1139.067 847.313,1139.067 				"/>
			</g>
			<polygon style="fill:#916140;" points="574.727,1249.811 565.721,1249.811 628.044,976.741 634.344,976.741 			"/>
		</g>
		<g>
			<path style="fill:#C6916D;" d="M2679.614,1081.747c-3.577-0.332-5.796,0.497-6.438,1.834c-0.07,0.148-4.584,10.34-10.663,28.702
				c-14.931-2.068-51.325-6.324-73.43-2.27c5.32-14.833,9.323-23.308,9.446-23.563c0.642-1.338,0.52-4.323-3.57-4.703
				c-3.576-0.332-5.794,0.497-6.437,1.834c-0.098,0.203-8.564,19.323-17.97,52.557c-7.995,28.25-14.207,73.104-14.474,123.2
				c-79.148,0.301-82.581,15.449-82.581,15.449h-0.981c-1.472,0-2.676,1.282-2.676,2.848l0,0c0,1.566,1.204,2.848,2.676,2.848h9.423
				c0.025,0.737,5.198,59.223-14.917,154.531h3.755c27.353-75.594,26.376-142.191,25.196-154.531h32.772
				c0.025,0.737,5.198,59.223-14.917,154.531h3.754c27.354-75.594,26.378-142.191,25.197-154.531h38.443
				c-1.18,12.34-2.156,78.938,25.197,154.531h3.755c-20.116-95.309-14.943-153.794-14.917-154.531h36.896
				c-1.181,12.34-2.156,78.938,25.196,154.531h3.755c-20.115-95.309-14.942-153.794-14.917-154.531h1.573
				c1.471,0,2.674-1.281,2.674-2.848l0,0c0-1.565-1.203-2.848-2.674-2.848h-0.777c0,0,0.12-0.767-0.677-1.957
				c0.068-0.237,0.116-0.481,0.112-0.739c-1.581-104.497,36.378-184.842,36.763-185.641
				C2683.826,1085.112,2683.704,1082.127,2679.614,1081.747z M2660.837,1117.439c-1.246,3.894-2.54,8.088-3.865,12.587
				c-14.058-1.981-51.025-6.473-73.732-2.548c1.29-4.139,2.562-8.01,3.784-11.584
				C2606.918,1111.018,2644.877,1115.287,2660.837,1117.439z M2640.752,1268.627c-7.676-3.755-24.758-8.02-62.739-9.024
				c-5.726-0.151-11.122-0.233-16.237-0.259c0.762-50.779,10.457-95.057,19.703-126.093c20.698-4.614,59.09-0.1,73.996,1.951
				c-0.09,0.313-0.178,0.62-0.268,0.936C2646.721,1166.123,2640.242,1214.813,2640.752,1268.627z"/>
			<g>
				<path style="fill:#1C468A;" d="M2551.865,993.409c0,0,1.375-17.44,26.461-12.912c6.632,1.197,11.19-10.628,22.047-6.414
					c23.377,9.074,24.751-2.906,31.508,13.907c2.828,7.039,20.812,15.233,15.319,27.396c-5.492,12.163,3.697,20.343-2.758,29.874
					c-3.342,4.933-1.984,13.748-17.747,14.063c-7.85,0.156-20.077,14.703-28.888,17.345c-8.81,2.643-35.265-1.169-34.268-13.256
					c0.778-9.431-10.221-8.646-16.978-19.487c-5.904-9.476,4.633-11.862-1.002-27.182
					C2541.431,1005.514,2552.189,1002.778,2551.865,993.409z"/>
				<g>
					<path style="fill:#FFB27D;" d="M2413.966,1422.447c0.538,5.834-7.583,7.253-16.99,7.722s-6.563,2.395-19.454,4.729
						c-12.891,2.334-18.057-1.193-18.99-2.936c-0.831-1.544,5.162-3.961,11.55-6.692c0.804-0.341,1.608-0.693,2.413-1.045
						c7.188-3.161,11.223-9.607,16.827-15.585c5.309-5.661,10.349-23.789,10.349-23.789l17.518-3.74c0,0-4.919,16.314-6.627,23.28
						c-1.004,4.096,0.479,8.677,1.793,12.162C2413.063,1418.451,2413.779,1420.393,2413.966,1422.447z"/>
					<path style="fill:#C65447;" d="M2396.976,1430.169c-9.407,0.469-6.563,2.395-19.454,4.729
						c-12.891,2.334-18.057-1.193-18.99-2.936c-0.831-1.544,5.162-3.961,11.55-6.692l0.1,0.108c0,0,9.063,3.078,19.525,0.233
						c8.528-2.315,16.773-7.411,22.647-9.059c0.71,1.897,1.426,3.839,1.612,5.894
						C2414.504,1428.281,2406.383,1429.7,2396.976,1430.169z"/>
				</g>
				<path style="fill:#163560;" d="M2567.4,1203.891c0,0-95.398,2.067-117.313,15.897c-21.914,13.831-57.062,174.93-57.062,174.93
					s2.169,1.739,7.015,2.264c4.505,0.487,14.429-2.162,14.429-2.162s50.511-72.081,54.068-90.239
					c3.558-18.16,2.69-34.363,10.792-34.797c8.102-0.435,109.094,12.277,124.369-14.635c15.276-26.912,2.647-53.553,2.647-53.553
					L2567.4,1203.891z"/>
				<g>
					<path style="fill:#FFB27D;" d="M2454.018,1423.104c0.539,5.834-7.583,7.253-16.989,7.721
						c-9.406,0.469-6.564,2.396-19.455,4.729c-12.891,2.335-18.056-1.192-18.989-2.935c-0.832-1.545,5.162-3.961,11.549-6.693
						c0.804-0.341,1.609-0.692,2.414-1.045c7.188-3.16,11.222-9.607,16.826-15.584c5.309-5.662,10.349-23.789,10.349-23.789
						l17.519-3.74c0,0-4.919,16.314-6.627,23.279c-1.004,4.097,0.478,8.677,1.793,12.163
						C2453.115,1419.106,2453.831,1421.048,2454.018,1423.104z"/>
					<path style="fill:#C65447;" d="M2437.028,1430.824c-9.406,0.469-6.564,2.396-19.455,4.729
						c-12.891,2.335-18.056-1.192-18.989-2.935c-0.832-1.545,5.162-3.961,11.549-6.693l0.1,0.108c0,0,9.064,3.078,19.526,0.233
						c8.527-2.315,16.772-7.411,22.647-9.058c0.709,1.896,1.425,3.838,1.611,5.894
						C2454.557,1428.938,2446.435,1430.356,2437.028,1430.824z"/>
				</g>
				<path style="fill:#1C468A;" d="M2606.717,1203.891c0,0-103.407,4.896-124.767,19.568c-21.36,14.673-50.21,177.019-50.21,177.019
					s2.235,1.652,7.098,1.988c4.52,0.312,14.333-2.722,14.333-2.722s47.667-73.992,50.516-92.277
					c2.849-18.283,1.351-34.44,9.429-35.189s109.489,8.021,123.706-19.465S2606.717,1203.891,2606.717,1203.891z"/>
				<path style="fill:#FFB27D;" d="M2637.669,1071.77c-0.038-0.057-0.085-0.104-0.132-0.16c-0.82-0.924-1.801-1.771-2.885-2.526
					l-0.037-0.028c0,0,0,0-0.01,0c-8.447-5.901-23.541-7.165-23.541-7.165v0.01v0.001c0-0.003-0.001-0.006-0.002-0.008
					c0,0-1.65-0.156-4.263-0.275c-1.979-5.131-4.231-12.729-4.931-23.814l-1.496,0.399l-25.16,6.749c0,0,1.115,7.984,1.637,15.543
					c0.114,1.656,0.199,3.289,0.239,4.815c-0.729,0.267-1.403,0.528-1.998,0.776c0,0-0.001,0-0.001,0.001l0.001-0.002
					c0,0-14.387,1.697-17.79,5.354c-3.403,3.668-10.21,28.027-11.926,32.346l96.866,1.584
					C2642.241,1105.369,2644.674,1080.057,2637.669,1071.77z"/>
				<path style="fill:#6BB7BF;" d="M2641.247,1245.025c-11.671,1.104-51.464-23.068-63.654-30.224
					c-5.364-3.148-12.905-4.639-20.08-5.826c-9.135-1.499-17.667-2.508-20.4-5.77c-3.253-3.894,6.307-8.201,13.99-12.67
					c3.874-2.263,7.278-4.563,8.333-6.863c0.82-1.811,0.755-5.77,0.208-10.832v-0.01c-0.095-0.942-0.217-1.933-0.349-2.95
					c-4.129,8.578-15.226,18.996-20.053,20.164c-5.552,1.349-11.303-4.808-15.545-10.672c-3.158-4.393-5.469-8.625-6.203-9.437
					c-1.716-1.895,6.91-5.656,10.445-8.484c3.525-2.828,17.431-57.667,17.431-57.667c1.717-4.318,8.522-28.678,11.926-32.346
					c0,0,13.274,16.215,30.488,15.282c17.093-0.915,46.364-17.403,46.816-17.667c0.01,0,0.01,0,0.01,0l0.037,0.028l3.018,2.687
					c7.004,8.287,4.571,33.6,4.571,33.6s-13.396,59.043-13.396,65.001c0,10.927,9.031,36.051,13.34,54.143
					C2644.924,1235.967,2645.771,1244.602,2641.247,1245.025z"/>
				<path style="fill:#F4A269;" d="M2575.213,1044.951c0,0,1.115,7.984,1.637,15.543c14.241-1.354,20.914-14.871,23.523-22.292
					L2575.213,1044.951z"/>
				<path style="fill:#FFB27D;" d="M2570.926,1052.426c0,0,33.794-1.693,32.415-22.722c-1.379-21.029,2.055-35.41-19.581-35.218
					c-21.634,0.191-25.296,8.491-26.543,15.621C2555.971,1017.239,2562.1,1052.325,2570.926,1052.426z"/>
				<path style="fill:#599DAD;" d="M2551.111,1190.533c-8.73,14.883,23.675,19.357,29.039,22.509
					c12.182,7.151,49.434,33.084,61.1,31.983c4.522-0.426,3.677-9.059,0.937-20.515c-4.312-18.091-13.338-43.214-13.338-54.138
					c0-5.962-1.984-20.07-4.633-36.201l-14.042-13.482c0,0-15.045,38.888-29.388,45.261c-7.516,3.337-15.366,5.541-21.136,6.88
					c0.54,5.063,0.612,9.035-0.211,10.838C2558.388,1185.978,2554.984,1188.276,2551.111,1190.533z"/>
				<path style="fill:#FFB27D;" d="M2616.312,1083.409c0,0,11.073-17.165,22.681-3.335s-8.25,112.697-25.45,117.776
					c-19.104,5.643-74.295-0.903-74.295-0.903l1.063-8.625c0,0,58.754-11.265,61.195-14.403
					C2603.947,1170.779,2610.208,1085.005,2616.312,1083.409z"/>
				<path style="fill:#1C468A;" d="M2569.503,1001.973c0,0,8.077-1.886,10.716,2.042c2.64,3.929,0.754,6.128,6.646,7.778
					c5.892,1.649,7.895,1.532,7.306,5.656c-0.589,4.124,5.923,7.188,6.202,10.487c0.279,3.3,2.989,4.95,5.582,5.186
					c2.594,0.235,1.414-42.541-8.602-44.427c-10.018-1.885-19.68,0.354-22.626,2.711
					C2571.781,993.763,2569.503,1001.973,2569.503,1001.973z"/>
				<path style="fill:#1C468A;" d="M2569.503,1001.973c0,0-7.856-0.55-9.271,3.928c-1.414,4.478,0.472,5.539-1.531,8.249
					c-2.004,2.711-0.845,7.518-0.845,7.518s-15.536-28.611,0.845-30.497C2575.081,989.285,2574.648,992.623,2569.503,1001.973z"/>
				<path style="fill:#6BB7BF;" d="M2574.268,1181.198c0,0,3.17,29.021,19.196,32.339c16.026,3.316,38.838-12.479,46.169-63.699
					s7.646-77.193-9.323-75.896c-16.97,1.297-23.603,16.571-23.174,34.785c0.446,18.934-2.328,46.915-10.102,51.97
					C2589.262,1165.752,2574.268,1181.198,2574.268,1181.198z"/>
				<path style="fill:#FFB27D;" d="M2545.104,1187.811c0,0-19.13-3.703-21.289-2.777c-2.16,0.926-14.194,11.725-12.96,13.885
					s6.171,3.702,11.726,1.852c5.554-1.852,17.587-2.777,19.746-5.554C2544.486,1192.438,2545.104,1187.811,2545.104,1187.811z"/>
				<path style="fill:#599DAD;" d="M2559.644,1172.841v-0.01c-0.095-0.942-0.217-1.933-0.349-2.95
					c-4.129,8.578-15.226,18.996-20.053,20.164c-5.552,1.349-11.303-4.808-15.545-10.672c7.928-4.034,29.725-16.676,31.779-34.749
					c2.518-22.135,4.177,28.207,4.177,28.207L2559.644,1172.841z"/>
			</g>
			<g>
				<path style="fill:#916140;" d="M2338.557,1249.811h222.744c1.211,0,2.192-0.981,2.192-2.192v-5.801
					c0-1.211-0.981-2.192-2.192-2.192h-222.744c-1.211,0-2.192,0.981-2.192,2.192v5.801
					C2336.364,1248.829,2337.346,1249.811,2338.557,1249.811z"/>
				<g>
					<path style="fill:#916140;" d="M2583.965,1436.328l0.842-0.002c1.389-0.004,2.414-1.295,2.105-2.648l-104.287-456.937h-14.732
						l114.114,458.062C2582.231,1435.701,2583.039,1436.33,2583.965,1436.328z"/>
				</g>
				<g>
					<path style="fill:#916140;" d="M2392.899,1436.328l0.842-0.002c1.389-0.004,2.413-1.295,2.104-2.648L2291.56,976.741h-14.733
						l114.115,458.062C2391.165,1435.701,2391.974,1436.33,2392.899,1436.328z"/>
				</g>
				<polygon style="fill:#CE9A78;" points="2336.364,1249.811 2535.942,1249.811 2476.197,976.741 2274.711,976.741 				"/>
				<polygon style="fill:#E5BD9E;" points="2348.647,1232.242 2512.678,1232.242 2463.793,995.453 2297.977,995.453 				"/>
				<polygon style="fill:#C6916D;" points="2279.818,997.494 2480.93,997.494 2476.325,976.741 2279.818,976.741 				"/>
				<g>
					<g>
						<path style="fill:#C6916D;" d="M2408.664,1434.263l67.661-457.521h-16.749l-55.254,457.437
							c-0.14,1.101,0.793,2.141,1.918,2.141h0.017C2407.494,1436.318,2408.49,1435.467,2408.664,1434.263z"/>
					</g>
					<path style="fill:#916140;" d="M2476.325,976.741l4.604,20.737l-69.519,435.655c-0.3,1.872-1.862,3.185-3.792,3.185h-1.379
						L2476.325,976.741z"/>
					<g>
						<path style="fill:#C6916D;" d="M2223.845,1434.263l65.646-457.521h-14.733l-55.255,457.437
							c-0.139,1.101,0.794,2.141,1.92,2.141h0.016C2222.675,1436.318,2223.672,1435.467,2223.845,1434.263z"/>
					</g>
					<path style="fill:#916140;" d="M2289.49,976.741l6.62,20.737l-69.519,435.655c-0.299,1.872-1.861,3.185-3.791,3.185h-1.379
						L2289.49,976.741z"/>
					<polygon style="fill:#C6916D;" points="2264.33,1150.18 2446.513,1150.18 2445.539,1139.067 2263.356,1139.067 					"/>
				</g>
				<polygon style="fill:#916140;" points="2535.942,1249.811 2544.948,1249.811 2482.625,976.741 2476.325,976.741 				"/>
			</g>
		</g>
		<g>
			<g>
				<g>
					<path style="fill:#B27F5D;" d="M1578.432,1435.794l1.057-0.003c1.741-0.005,3.028-1.624,2.641-3.321l-130.831-573.243h-18.483
						l143.16,574.653C1576.256,1435.007,1577.271,1435.797,1578.432,1435.794z"/>
				</g>
				<g>
					<g>
						<path style="fill:#C6916D;" d="M1598.209,1433.201l84.884-573.975h-21.013l-69.319,573.87
							c-0.173,1.38,0.996,2.685,2.409,2.685h0.02C1596.741,1435.781,1597.992,1434.713,1598.209,1433.201z"/>
					</g>
					<path style="fill:#916140;" d="M1683.093,859.227l5.776,26.014l-87.215,546.546c-0.374,2.349-2.334,3.995-4.755,3.995h-1.729
						L1683.093,859.227z"/>
					<g>
						<path style="fill:#C6916D;" d="M1366.347,1433.201l82.354-573.975h-18.482l-69.319,573.87
							c-0.175,1.38,0.996,2.685,2.408,2.685h0.02C1364.88,1435.781,1366.13,1434.713,1366.347,1433.201z"/>
					</g>
					<path style="fill:#916140;" d="M1448.701,859.227l8.305,26.014l-87.213,546.546c-0.374,2.349-2.335,3.995-4.756,3.995h-1.729
						L1448.701,859.227z"/>
					<polygon style="fill:#916140;" points="1422.039,1076.81 1654.574,1076.81 1653.331,1062.869 1420.796,1062.869 					"/>
				</g>
				<polygon style="fill:#B27F5D;" points="1757.885,1201.801 1769.182,1201.801 1690.996,859.227 1683.093,859.227 				"/>
				<polygon style="fill:#E5BD9E;" points="1511.834,1201.801 1776.222,1201.801 1697.075,859.227 1430.159,859.227 				"/>
				<polygon style="fill:#E9F3FE;" points="1537.286,1142.246 1741.383,1142.246 1680.284,877.792 1474.236,877.792 				"/>
				<path style="fill:#B27F5D;" d="M1510.256,1201.801h279.441c1.52,0,2.75-1.231,2.75-2.75v-7.278c0-1.519-1.23-2.75-2.75-2.75
					h-279.441c-1.519,0-2.75,1.231-2.75,2.75v7.278C1507.506,1200.569,1508.737,1201.801,1510.256,1201.801z"/>
				<path style="fill:#C6916D;" d="M1537.966,1201.801h273.359c1.503,0,2.72-1.218,2.72-2.721v-7.337
					c0-1.503-1.217-2.721-2.72-2.721h-273.359c-1.503,0-2.721,1.218-2.721,2.721v7.337
					C1535.245,1200.583,1536.463,1201.801,1537.966,1201.801z"/>
				<path style="fill:#E5BD9E;" d="M1487.222,889.499c0-0.91,0.738-1.648,1.648-1.648c0.911,0,1.648,0.738,1.648,1.648
					c0,0.91-0.737,1.648-1.648,1.648C1487.96,891.148,1487.222,890.409,1487.222,889.499z"/>
				<path style="fill:#E5BD9E;" d="M1667.36,889.499c0-0.91,0.737-1.648,1.647-1.648c0.911,0,1.648,0.738,1.648,1.648
					c0,0.91-0.737,1.648-1.648,1.648C1668.098,891.148,1667.36,890.409,1667.36,889.499z"/>
				<g>
					<g>
						<path style="fill:#E5BD9E;" d="M1639.822,1043.98c-0.562-0.568-2.237-2.238-2.992-18.143
							c-0.183-3.761-0.34-7.102-0.379-10.559c-0.001-0.376-0.001-0.376,0,0c0.038,3.422-0.244,6.157-0.064,9.862
							c0.668,13.936,2.109,17.942,3.358,19.174c0.366,0.354,0.593,0.822,0.721,1.316c0.653,2.637,1.619,8.964-1.117,13.575
							c-2.014,3.391-5.66,5.297-10.843,5.682c-8.896,0.653-27.6-5.066-35.346-13.048c-2.398-2.468-2.983-5.383-2.758-7.562
							c0.116-1.146,0.626-2.791,1.336-5.074c1.709-5.52,3.572-14.761,4.276-28.754c0.02-0.41,0.019-0.422,0,0
							c-0.652,14.213-3.61,22.871-5.34,28.423c-0.719,2.351-1.249,4.042-1.373,5.298c-0.259,2.513,0.949,5.164,3.577,7.878
							c7.746,7.982,25.672,14.292,35.022,13.979c0.232-0.008,0.464-0.026,0.686-0.034c9.835-0.719,11.98-6.784,12.704-11.594
							C1641.998,1049.713,1640.683,1044.86,1639.822,1043.98z"/>
					</g>
					<g>
						<path style="fill:#E5BD9E;" d="M1642.732,946.64c-5.364-10.321-14.895-19.64-44.918-10.455
							c-26.371,8.075-21.468,22.817-15.075,45.589c1.157,4.127,1.679,8.701,2.808,13.294c1.555,6.384,5.045,11.352,10.378,14.783
							c0.284,0.201,0.578,0.38,0.872,0.558c0.068,0.043,0.136,0.085,0.203,0.115c7.516,4.4,17.34,5.345,25.894,5.057
							c5.112-0.172,9.767-0.793,13.182-1.362c0.386-0.067,0.76-0.137,1.112-0.192c2.873-0.528,4.643-0.976,4.708-1l0.032-0.001
							c1.995-0.665,3.606-2.47,4.794-5.379C1652.709,992.965,1646.891,954.653,1642.732,946.64z M1645.7,1007.226
							c-1.055,2.584-2.43,4.181-4.096,4.734c-0.187,0.051-1.823,0.46-4.433,0.936c-0.353,0.066-0.716,0.135-1.102,0.203
							c-8.987,1.554-26.904,3.396-38.706-3.641c-0.103-0.063-0.205-0.126-0.307-0.188c-0.372-0.221-0.735-0.464-1.087-0.706
							c-4.763-3.275-7.921-7.898-9.348-13.766c-1.129-4.615-2.337-8.896-3.495-13.033c-6.442-22.925-10.33-36.764,15.011-44.518
							c7.763-2.376,14.098-3.453,19.286-3.628c16.997-0.571,22.12,7.613,24.714,12.601
							C1646.131,953.896,1651.451,993.118,1645.7,1007.226z"/>
					</g>
					<g>
						<path style="fill:#E5BD9E;" d="M1695.316,1056.514c-55.502-15.729-154.982-3.863-156.1-3.73l0,0
							C1540.336,1052.649,1651.447,1038.452,1695.316,1056.514L1695.316,1056.514z"/>
					</g>
					<g>
						<path style="fill:#E5BD9E;" d="M1599.408,979.943L1599.408,979.943c2.188-1.25,33.036-11.309,47.619-6.287l0,0
							C1632.803,968.763,1599.739,979.831,1599.408,979.943z"/>
					</g>
					<g>
						<path style="fill:#E5BD9E;" d="M1591.412,959.285L1591.412,959.285c10.053-3.713,33.396-12.351,47.98-7.334l0,0
							C1625.17,947.058,1591.742,959.174,1591.412,959.285z"/>
					</g>
					<g>
						<path style="fill:#E5BD9E;" d="M1605.214,1000.904L1605.214,1000.904c6.164-3.06,33.037-11.309,47.62-6.287l0,0
							C1638.607,989.721,1605.545,1000.793,1605.214,1000.904z"/>
					</g>
					<g>
						<path style="fill:#E5BD9E;" d="M1633.229,1018.988c13.28-20.297,3.144-48.541-24.772-91.651
							c-1.268-1.958-0.38-1.03,0.19-0.147C1636.817,970.69,1646.763,998.303,1633.229,1018.988z"/>
					</g>
					<g>
						<path style="fill:#E5BD9E;" d="M1578.644,1018.916c-4.169,0.14-8.731-0.185-12.831-2.012
							c-8.185-3.644-9.896-27.691-11.281-43.184c-0.357-3.987-0.166-9.258-0.445-10.52c-0.329-1.476-4.662-3.189-8.428-5.453
							c-6.658-3.999-15.777-9.477-17.734-17.626c-0.996-4.145-0.024-8.61,2.888-13.272c13.244-21.197,41.066-11.439,43.381-10.581
							c26.771-3.099,48.298-2.479,60.813,7.553c10.819,8.672,11.385,19.665,11.403,20.128l0,0
							c-0.005-0.108-1.047-9.631-12.12-19.283c-11.006-9.593-55.076-10.243-60.354-7.312c-0.071-0.028-7.334-2.864-16.142-3.014
							c-11.721-0.203-21.177,3.222-26.729,12.11c-2.749,4.4-2.988,9.566-2.064,13.412c1.849,7.697,10.737,13.037,17.228,16.937
							c4.312,2.591,7.427,4.461,7.858,6.401c0.295,1.33,0.565,4.353,0.939,8.535c1.275,14.251,3.648,40.777,11.238,44.158
							c6.004,2.673,13.191,1.968,18.442,1.459c3.837-0.377,6.156-0.602,6.953,0.509l0,0c-0.425-0.591-4.131,0.327-6.845,0.593
							C1582.952,1018.637,1580.854,1018.842,1578.644,1018.916z"/>
					</g>
				</g>
				<g>
					<path style="fill:#B5453C;" d="M1514.535,1189.219l-0.017-3.454l56.416-0.259c0.771-0.003,1.398,0.619,1.401,1.39l0.005,1.028
						c0.003,0.569-0.456,1.032-1.024,1.035L1514.535,1189.219z"/>
					<path style="fill:#B27F5D;" d="M1498.357,1187.565c0,0,8.007-0.036,12.868-1.079l3.293-0.722l0.017,3.454
						C1514.535,1189.219,1505.972,1187.531,1498.357,1187.565z"/>
				</g>
			</g>
			<path style="fill:#163560;" d="M1670.734,1398.231c0,0,3.967,18.692,0,23.855s-14.781,6.356-14.537,13.713h52.406
				c0,0-1.779-13.174-7.299-18.784c-5.519-5.611-11.037-38.363-11.037-38.363L1670.734,1398.231z"/>
			<path style="fill:#163560;" d="M1743.611,1398.231c0,0,3.967,18.692,0,23.855s-14.781,6.356-14.537,13.713h52.407
				c0,0-1.78-13.174-7.3-18.784c-5.519-5.611-11.037-38.363-11.037-38.363L1743.611,1398.231z"/>
			<path style="fill:#B23636;" d="M1850.574,1237.536c-2.393,0.584-6.188,1.14-11.086,1.667v0.01
				c-18.941,2.044-54.347,3.607-88.416,3.975c-12.113,0.132-24.047,0.113-35.02-0.084c-0.047,0-0.094,0.009-0.141,0
				c-9.532-0.18-18.329-0.5-25.865-0.971c-8.346-0.518-15.154-1.243-19.686-2.186c-3.297-0.678-5.397-1.479-6.037-2.411
				c-5.426-7.827-18.904-23.51-17.189-35.415c0.348-2.431,1.318-4.7,3.127-6.706c0,0,9.259-3.495,23.82-8.431h0.01
				c28.85-9.768,78.525-25.158,118.302-30.141h0.01c23.481-2.947,43.516-2.27,53.772,5.341
				C1882.6,1189.189,1873.802,1231.885,1850.574,1237.536z"/>
			<path style="fill:#892828;" d="M1769.11,1387.769c-5.728,12.414-24.65,13.026-24.65,13.026
				c-4.304-9.796-8.298-19.139-11.999-28.04c-25.705-61.798-37.487-102.629-42.226-129.491c-0.065-0.387-0.132-0.754-0.188-1.131
				c-7.365-42.932,3.561-49.459,3.561-49.459c0.217-0.047,0.442-0.094,0.66-0.132c9.842-1.884,18.498,0.038,26.09,4.784
				c13.035,8.186,22.935,24.754,30.357,44.872c0.112,0.32,0.235,0.65,0.357,0.989c9.542,26.279,14.901,58.416,17.511,85.77
				C1771.483,1359.239,1771.003,1383.662,1769.11,1387.769z"/>
			<path style="fill:#ED7D2B;" d="M1833.334,956.411c0,0,1.756,0.198,4.388,0.634c6.358,1.051,17.831,3.479,22.003,7.813
				c5.898,6.126,36.84,88.615,35.222,100.578c-1.619,11.962-36.264,30.346-48.037,31.758L1833.334,956.411L1833.334,956.411z"/>
			<path style="fill:#F4A269;" d="M1791.591,968.717c-0.123,0.102,0.099,17.747,15.357,13.953
				c10.018-2.491,29.343-19.132,25.667-27.397c-1.748-3.928-11.545-13.057-18.01-37.107l-1.74,0.864l-29.259,14.558
				c0,0,3.357,9.541,5.879,18.704C1791.604,959.986,1793.129,967.415,1791.591,968.717z"/>
			<path style="fill:#FFB27D;" d="M1771.053,939.793c0,0,44.041,9.952,49.816-17.569c5.776-27.522,15.351-44.772-12.524-52.291
				c-27.875-7.518-35.56,1.834-39.722,10.551C1764.46,889.201,1759.745,936.494,1771.053,939.793z"/>
			<path style="fill:#A03732;" d="M1859.711,1197.279c0,0-26.895,21.938-25.324,37.117c1.569,15.18-21.261-3.034-21.261-3.034
				l10.403-34.083H1859.711z"/>
			<path style="fill:#1C468A;" d="M1805.31,923.193c10.528,3.586,26.626-17.089,31.239-29.136
				c5.651-14.756-7.33-44.035-41.184-39.759c0,0-9.824,0.802-19.148,6.875c-7.414,4.829-27.129,17.344,4.738,30.687
				C1792.936,896.877,1796.145,920.072,1805.31,923.193z"/>
			<path style="fill:#A03732;" d="M1809.283,1237.538c-7.883,1.923-31.084,3.61-58.567,4.657
				c-11.099,0.417-22.901,0.737-34.663,0.908c-0.043,0-0.096,0.011-0.139,0c-8.674,0.129-17.337,0.192-25.679,0.16
				c-5.576-0.021-10.991-0.074-16.204-0.182c2.083,5.747,3.974,11.771,5.672,17.967c14.697,53.537,15.616,119.657,12.38,126.653
				c-5.736,12.412-24.653,13.021-24.653,13.021c-17.764-40.463-30.144-73.234-38.636-99.726
				c-29.609-92.279-12.21-108.387-12.21-108.387c0.043-0.012,15.254-9.39,37.793-15.137
				c41.894-10.671,105.312-28.306,138.029-20.626c4.967,1.153,9.186,2.905,12.477,5.341c10.169,7.531,16.803,16.279,20.594,25.102
				C1835.283,1210.129,1826.032,1233.458,1809.283,1237.538z"/>
			<path style="fill:#F99746;" d="M1871.052,1188.878c-2.308,3.222-6.236,6.028-11.331,8.401h-0.01
				c-36.461,17.002-123.741-20.617-119.596-45.797c1.46-8.863,8.367-8.813,13.755-23.291c4.183-11.246,7.195-21.776,7.055-32.08
				c-0.057-4.371-0.696-8.713-2.044-13.046c-3.287-10.512-6.301-27.409-8.214-45.419c-3.259-30.677-0.805-61.765,6.522-72.672
				c1.037-1.544,61.266-18.409,108.031-3.188c0,0,3.692,54.319-6.988,110.992c-1.433,7.563-0.754,15.363,1.978,22.559
				C1868.725,1117.783,1885.49,1168.693,1871.052,1188.878z"/>
			<path style="fill:#ED7D2B;" d="M1778.83,1083.85c6.298-19.684,8.124-44.082-4.691-69.308c0,0-13.007,7.893-23.472,23.104
				c1.913,18.01,4.927,34.907,8.214,45.419c1.39,4.445,2.011,8.897,2.043,13.393c0.001,0.257-0.003,0.514-0.005,0.771
				c-0.005,0.59-0.02,1.181-0.044,1.772c-0.01,0.251-0.018,0.502-0.031,0.754c-0.043,0.772-0.101,1.548-0.175,2.324
				c-0.024,0.251-0.056,0.504-0.083,0.755c-0.063,0.577-0.133,1.154-0.211,1.732c-0.041,0.299-0.082,0.597-0.127,0.896
				c-0.105,0.702-0.22,1.405-0.348,2.11c-0.047,0.262-0.099,0.523-0.148,0.785c-0.122,0.636-0.252,1.272-0.391,1.91
				c-0.069,0.319-0.142,0.64-0.215,0.96c-0.133,0.574-0.271,1.149-0.414,1.727c-0.066,0.264-0.129,0.527-0.197,0.792
				c-0.201,0.778-0.416,1.56-0.639,2.344c-0.09,0.32-0.186,0.642-0.279,0.963c-0.162,0.554-0.329,1.11-0.501,1.667
				c-0.096,0.311-0.189,0.621-0.289,0.933c-0.251,0.797-0.511,1.595-0.779,2.398c-0.09,0.267-0.184,0.536-0.275,0.805
				c-0.212,0.623-0.429,1.248-0.65,1.876c-0.104,0.293-0.207,0.586-0.313,0.88c-0.307,0.856-0.618,1.715-0.939,2.579
				c-5.388,14.478-18.337,21.867-18.317,29.166c0.052,18.881,87.697,56.924,124.158,39.922
				C1774.724,1210.354,1778.813,1084.38,1778.83,1083.85z"/>
			<path style="fill:#1C468A;" d="M1763.729,878.497c0,0,4.593,33.031,30.211,45.04c0,0-16.73-38.27-8.254-45.57
				C1794.163,870.668,1763.729,878.497,1763.729,878.497z"/>
			<path style="fill:#FFB27D;" d="M1788.982,906.459c0,0,4.396-8.947,8.477-7.221c4.082,1.728-1.569,16.17-4.238,16.013
				C1790.553,915.094,1788.982,906.459,1788.982,906.459z"/>
			<g>
				<path style="fill:#B5453C;" d="M1614.998,1010.025l3.201-1.298l21.207,52.277c0.29,0.714-0.054,1.528-0.768,1.817l-0.954,0.387
					c-0.526,0.214-1.128-0.039-1.341-0.566L1614.998,1010.025z"/>
				<path style="fill:#B27F5D;" d="M1610.521,994.393c0,0,3.009,7.419,5.784,11.545l1.894,2.79l-3.201,1.298
					C1614.998,1010.025,1613.383,1001.448,1610.521,994.393z"/>
			</g>
			<path style="fill:#FFB27D;" d="M1754.835,969.096c0,0-37.333,74.759-42.069,86.726c-1.821,4.601-68.174-15.788-68.174-15.788
				s-5.646-4.891-6.156-10.362c-0.509-5.471-24.681-12.778-26.738-10.64c-2.057,2.14,5.589,20.412,8.48,23.01
				c2.891,2.598,20.108,10.14,20.109,10.141c10.651,10.396,76.909,37.156,82.827,33.973c6.22-3.347,34.961-55.139,46.087-68.813
				C1780.327,1003.669,1775.916,958.843,1754.835,969.096z"/>
			<path style="fill:#F99746;" d="M1783.869,1016.822c-6.828,5.001-18.583,31.609-35,50.324c0,0-0.028,0.039-0.086,0.113
				c-3.117,3.542-6.395,6.792-9.843,9.561c-27.276,21.908-48.036,15.975-48.036,15.975c-13.864-7.648-18.273-23.453-19.639-34.172
				c-0.801-6.387-0.527-10.964-0.527-10.964s33.983,6.207,37.487,5.736c3.514-0.471,38.103-80.694,42.822-85.477
				c10.171-10.31,51.891-12.881,51.891-12.881C1813.959,950.376,1791.998,1010.85,1783.869,1016.822z"/>
			<path style="fill:#ED7D2B;" d="M1748.869,1067.146c0,0-0.028,0.039-0.086,0.113c-3.117,3.542-6.395,6.792-9.843,9.561
				c-27.276,21.908-48.036,15.975-48.036,15.975c-13.864-7.648-18.273-23.453-19.639-34.172
				C1675.674,1062.824,1707.435,1090.808,1748.869,1067.146z"/>
			<path style="fill:#1C468A;" d="M1897.664,959.834c-18.704-13.661-38.508-30.293-34.491-44.585
				c9.325-33.124-17.988-73.31-46.348-61.463c-15.254,6.366-27.612,89.545-6.612,112.436c-1.859-4.614-3.91-12.774-4.754-27.271
				c0.14,1.432,2.051,19.74,8.033,30.198c30.604,40.313-24.505,40.761-2.244,77.378c0,0,1.898,12.707,52.349-1.166
				c8.851-2.435,16.87-7.351,22.87-14.296c4.207-4.869,8.044-10.782,8.537-16.52c0,0,0.396,11.654-7.487,23.404
				c15.371-5.405,25.38-20.84,27.474-38.508C1916.57,986.219,1913.44,971.36,1897.664,959.834z"/>
			<g>
				<path style="fill:#E5BD9E;" d="M1893.084,1249.573h-216.968c0,0,5.052-21.022,130.705-17.896
					c9.981,0.254,18.807,0.669,26.619,1.225C1895.178,1237.225,1893.084,1249.573,1893.084,1249.573z"/>
				<g>
					<path style="fill:#A06B47;" d="M1727.854,1438.404c25.234-112.324,18.746-181.249,18.714-182.117
						c-0.063-1.729,3.562-3.3,5.512-3.355c1.974-0.031,10.685-0.511,11.692,0.969c1.32,1.939,6.402,86.86-31.208,184.504H1727.854z"
						/>
				</g>
				<g>
					<path style="fill:#A06B47;" d="M1667.99,1438.404c25.234-112.324,18.746-181.249,18.715-182.117
						c-0.064-1.729,3.561-3.3,5.511-3.355c1.975-0.031,10.685-0.511,11.692,0.969c1.32,1.939,6.402,86.86-31.207,184.504H1667.99z"
						/>
				</g>
				<path style="fill:#CE9A78;" d="M1896.355,1252.927c0,1.847-1.505,3.362-3.337,3.362h-218.161c-0.917,0-1.748-0.377-2.347-0.989
					c-0.607-0.611-0.981-1.45-0.981-2.373c0-1.837,1.496-3.354,3.328-3.354h218.161c0.916,0,1.748,0.378,2.355,0.989
					C1895.981,1251.175,1896.355,1252.004,1896.355,1252.927z"/>
				<path style="fill:#D6A685;" d="M1840.166,1249.573h-164.05c0,0,5.067-21.022,131.112-17.896
					c10.012,0.254,18.866,0.669,26.703,1.225C1833.535,1235.511,1832.886,1244.063,1840.166,1249.573z"/>
				<g>
					<path style="fill:#7C4F31;" d="M1896.355,1252.927c0,1.847-1.533,3.362-3.399,3.362h-116.403c-0.934,0-1.781-0.377-2.391-0.989
						c-0.618-0.611-0.999-1.45-0.999-2.373c0-1.837,1.523-3.354,3.39-3.354h116.403c0.933,0,1.78,0.378,2.399,0.989
						C1895.975,1251.175,1896.355,1252.004,1896.355,1252.927z"/>
					<g>
						<g>
							<path style="fill:#7C4F31;" d="M1889.614,1253.341c0.017,0,0.033,0,0.052,0c1.95-0.025,3.51-1.447,3.481-3.176
								c-1.984-123.15,45.638-217.838,46.119-218.779c0.805-1.576,0.652-5.095-4.479-5.543c-4.487-0.392-7.27,0.586-8.075,2.163
								c-0.122,0.238-10.745,22.771-22.543,61.938c-10.88,36.111-19.136,95.239-18.086,160.311
								C1886.11,1251.968,1887.687,1253.341,1889.614,1253.341z"/>
						</g>
						<g>
							<path style="fill:#7C4F31;" d="M1783.413,1253.341c0.018,0,0.034,0,0.051,0c1.952-0.025,3.511-1.447,3.483-3.176
								c-1.984-123.15,45.637-217.838,46.118-218.779c0.805-1.576,0.652-5.095-4.479-5.543c-4.487-0.392-7.271,0.586-8.076,2.163
								c-0.122,0.238-10.744,22.771-22.543,61.938c-10.88,36.111-19.135,95.239-18.086,160.311
								C1779.909,1251.968,1781.486,1253.341,1783.413,1253.341z"/>
						</g>
						<g>
							<path style="fill:#7C4F31;" d="M1921.061,1069.203c1.689,0,3.184-1.08,3.478-2.605c0.329-1.705-0.963-3.322-2.887-3.615
								c-3.06-0.463-75.286-11.245-107.615-2.249c-1.862,0.518-2.897,2.276-2.313,3.925c0.584,1.651,2.567,2.572,4.429,2.051
								c30.706-8.543,103.576,2.337,104.309,2.448C1920.662,1069.188,1920.862,1069.203,1921.061,1069.203z"/>
						</g>
						<g>
							<path style="fill:#7C4F31;" d="M1912.805,1089.943c1.689,0,3.184-1.079,3.479-2.605c0.328-1.705-0.965-3.323-2.887-3.615
								c-3.06-0.462-75.286-11.248-107.615-2.249c-1.861,0.517-2.897,2.275-2.313,3.927c0.584,1.649,2.567,2.571,4.429,2.049
								c30.718-8.55,103.576,2.338,104.308,2.448C1912.406,1089.928,1912.607,1089.943,1912.805,1089.943z"/>
						</g>
					</g>
					<g>
						<path style="fill:#7C4F31;" d="M1911.476,1438.404c-25.235-112.324-18.746-181.249-18.714-182.117
							c0.063-1.729-3.562-3.3-5.512-3.355c-1.975-0.031-10.685-0.511-11.692,0.969c-1.32,1.939-6.402,86.86,31.207,184.504H1911.476
							z"/>
					</g>
					<g>
						<path style="fill:#7C4F31;" d="M1813.126,1438.404c-25.235-113.696-18.747-183.464-18.715-184.343
							c0.063-1.751-3.562-3.34-5.511-3.396c-1.976-0.031-10.685-0.518-11.693,0.98c-1.32,1.962-6.402,87.922,31.208,186.758
							H1813.126z"/>
					</g>
				</g>
			</g>
		</g>
		<g>
			<g>
				<path style="fill:#599DAD;" d="M2185.772,913.059c0,0-13.118-15.305-0.809-25.026c0,0,8.992-5.444,16.323-5.002
					c0,0-10.389,17.421-7.027,19.154c3.36,1.732,10.176-20.247,10.176-20.247s20.463-1.984,27.046,1.181
					c0,0-17.493,14.314-13.809,15.167c3.684,0.852,22.578-13.198,22.578-13.198s19.044,3.241,18.028,14.858
					c-1.015,11.618-7.577,15.205-10.461,14.896s-19.756-6.75-20.123-4.387c-0.368,2.363,9.788,10.087,16.9,10.448
					c0,0-13.428,14.808-22.352,10.534c-8.923-4.273-9.685-11.048-15.247-13.588c-5.563-2.542-10.312-2.535-8.015,0.056
					c2.297,2.592,12.363,5.11,15.545,10.737c3.182,5.627,6.035,9.422-3.197,8.032c-9.232-1.389-24.239-8.145-24.898-15.88
					C2185.772,913.059,2185.772,913.059,2185.772,913.059z"/>
				<g>
					<path style="fill:#599DAD;" d="M2248.923,900.26c0,0-51.727-1.994-63.15,12.799c0,0-2.526,7.566-10.3,14.456l-1.212,3.303
						c0,0,8.964-9.451,12.171-10.022C2186.432,920.795,2181.416,902.467,2248.923,900.26z"/>
					<path style="fill:#599DAD;" d="M2175.473,927.515c0,0-11.103,8.211-11.874,22.882l2.016,0.181c0,0,3.545-15.17,9.954-21.102
						C2181.979,923.543,2175.473,927.515,2175.473,927.515z"/>
				</g>
			</g>
			<g>
				<path style="fill:#6BB7BF;" d="M2139.904,893.81c0,0,20.869-11.686,11.13-27.547c0,0-7.791-9.738-16.139-12.243
					c0,0,4.452,23.651,0,24.208c-4.452,0.557-3.062-26.712-3.062-26.712s-21.98-10.573-30.607-9.739c0,0,13.635,23.096,9.183,22.538
					c-4.452-0.556-19.756-23.93-19.756-23.93s-22.538-4.173-26.155,9.183c-3.617,13.356,2.226,20.035,5.564,20.869
					c3.339,0.835,24.765,0.557,24.208,3.339c-0.557,2.783-15.025,7.234-23.095,4.73c0,0,8.904,21.983,20.591,20.869
					c11.687-1.112,15.304-8.348,22.538-8.904c7.234-0.556,12.521,1.392,8.904,3.339c-3.617,1.948-15.86,0.639-21.703,5.607
					c-5.844,4.968-10.574,8.028,0.277,10.254c10.852,2.227,30.33,0.835,34.226-7.513S2139.904,893.81,2139.904,893.81z"/>
				<g>
					<path style="fill:#6BB7BF;" d="M2074.793,853.742c0,0,58.434,18.921,65.111,40.068c0,0-0.278,9.461,5.564,20.313v4.174
						c0,0-6.121-14.19-9.46-16.139C2136.009,902.158,2149.087,883.794,2074.793,853.742z"/>
					<path style="fill:#6BB7BF;" d="M2145.469,914.123c0,0,9.012,13.685,3.875,30.342l-2.318-0.623c0,0,2.25-18.347-2.465-27.574
						C2139.846,907.04,2145.469,914.123,2145.469,914.123z"/>
				</g>
			</g>
			<g>
				<path style="fill:#86D1CD;" d="M2173.104,877.693c0,0-27.509-15.405-14.671-36.313c0,0,10.271-12.837,21.273-16.139
					c0,0-5.868,31.178,0,31.911c5.869,0.733,4.035-35.212,4.035-35.212s28.977-13.938,40.347-12.838
					c0,0-17.973,30.443-12.104,29.711c5.868-0.734,26.041-31.545,26.041-31.545s29.71-5.502,34.479,12.104
					c4.768,17.607-2.935,26.41-7.336,27.51c-4.402,1.101-32.645,0.733-31.911,4.401c0.733,3.668,19.807,9.537,30.443,6.236
					c0,0-11.737,28.976-27.143,27.509s-20.173-11.004-29.71-11.737c-9.536-0.733-16.505,1.834-11.737,4.401
					c4.769,2.567,20.907,0.841,28.609,7.39c7.703,6.548,13.938,10.583-0.366,13.518c-14.305,2.934-39.98,1.101-45.115-9.903
					C2173.104,877.693,2173.104,877.693,2173.104,877.693z"/>
				<g>
					<path style="fill:#6BB7BF;" d="M2258.935,824.876c0,0-77.026,24.941-85.83,52.817c0,0,0.367,12.471-7.336,26.775v5.502
						c0,0,8.07-18.706,12.472-21.273C2178.24,888.697,2161.002,864.489,2258.935,824.876z"/>
					<path style="fill:#6BB7BF;" d="M2165.769,904.469c0,0-11.878,18.038-5.106,39.996l3.057-0.82c0,0-2.967-24.185,3.248-36.35
						C2173.182,895.131,2165.769,904.469,2165.769,904.469z"/>
				</g>
			</g>
			<path style="fill:#EFCBAB;" d="M2172.178,992.081c29.762,0,53.887-24.126,53.887-53.886h-107.772
				C2118.292,967.955,2142.417,992.081,2172.178,992.081z"/>
			<path style="fill:#FFEBDC;" d="M2185.438,991.669c-2.191,0.275-4.427,0.412-6.695,0.412c-29.761,0-53.884-24.126-53.884-53.887
				h13.387C2138.246,965.69,2158.837,988.372,2185.438,991.669z"/>
			<path style="fill:#EFCBAB;" d="M2226.809,994.823h-109.261l0,0c0-3.672,2.977-6.648,6.648-6.648h95.964
				C2223.832,988.175,2226.809,991.151,2226.809,994.823L2226.809,994.823z"/>
			<rect x="2116.521" y="938.194" style="fill:#EFCDAF;" width="110.77" height="1.653"/>
		</g>
		<path style="fill:#2E3552;" d="M2947.747,1442.752H252.254c-1.684,0-3.062-1.379-3.062-3.062v-1.044
			c0-1.684,1.378-3.062,3.062-3.062h2695.493c1.683,0,3.06,1.378,3.06,3.062v1.044
			C2950.807,1441.373,2949.43,1442.752,2947.747,1442.752z"/>
		<g>
			<rect x="1653.321" y="334.878" style="fill:#F9DDBF;" width="271.268" height="341.155"/>
			<rect x="1661.151" y="344.727" style="fill:#FFEAD7;" width="255.607" height="321.458"/>
			<rect x="1668.148" y="353.525" style="fill:#FCECDB;" width="241.613" height="303.859"/>
		</g>
		<g>
			<path style="fill:#F9DDBF;" d="M681.945,478.589C578.417,529.463,475.995,619.32,435.146,676.036h246.799V478.589z"/>
			<path style="fill:#FFEAD7;" d="M442.603,666.185h231.508V482.52C579.09,531.021,486.301,610.874,442.603,666.185z"/>
			<path style="fill:#FCECDB;" d="M449.791,657.389h217.325V486.144C579.484,532.33,494.737,604.092,449.791,657.389z"/>
		</g>
	</g>
</g>
</svg>
