<svg xmlns="http://www.w3.org/2000/svg" version="1.1" xmlns:xlink="http://www.w3.org/1999/xlink" xmlns:svgjs="http://svgjs.dev/svgjs" width="1000" height="1000" viewBox="0 0 1000 1000"><rect width="1000" height="1000" fill="#7851a9"></rect><g transform="matrix(0.7,0,0,0.7,149.93311740890692,149.93340080971655)"><svg viewBox="0 0 247 247" data-background-color="#7851a9" preserveAspectRatio="xMidYMid meet" height="1000" width="1000" xmlns="http://www.w3.org/2000/svg" xmlns:xlink="http://www.w3.org/1999/xlink"><g id="tight-bounds" transform="matrix(1,0,0,1,0.02359999999998763,0.023500000000012733)"><svg viewBox="0 0 246.95280000000002 246.95280000000002" height="246.95280000000002" width="246.95280000000002"><g><svg viewBox="0 0 246.95280000000002 246.95280000000002" height="246.95280000000002" width="246.95280000000002"><g><svg viewBox="0 0 246.95280000000002 246.95280000000002" height="246.95280000000002" width="246.95280000000002"><g><svg viewBox="0 0 246.95280000000002 246.95280000000002" height="246.95280000000002" width="246.95280000000002"><g id="textblocktransform"><svg viewBox="0 0 246.95280000000002 246.95280000000002" height="246.95280000000002" width="246.95280000000002" id="textblock"><g><svg viewBox="0 0 246.95280000000002 246.95280000000002" height="246.95280000000002" width="246.95280000000002"><g transform="matrix(1,0,0,1,50.71723353624782,50.71723353624782)"><svg viewBox="0 0 145.5183329275044 145.5183329275044" height="145.5183329275044" width="145.5183329275044"><g><circle r="73" cx="72.7591664637522" cy="72.7591664637522" fill="#ffffff" data-fill-palette-color="accent"></circle><svg xmlns="http://www.w3.org/2000/svg" xmlns:xlink="http://www.w3.org/1999/xlink" version="1.0" x="21.827749939125656" y="21.827749939125656" viewBox="8.835638623344979 1.4275490601809417 82.32882683021624 97.57245093981906" enable-background="new 0 0 100 100" xml:space="preserve" height="101.86283304925308" width="101.86283304925308" class="icon-kg-0" data-fill-palette-color="quaternary" id="kg-0"><path d="M90.984 85.233L55.176 47.685c2.959-41.6-2.062-44.325-3.955-45.351-0.016-0.008-0.03-0.016-0.047-0.023-7.471-3.299-34.626 3.682-35.777 3.981-0.255 0.065-0.444 0.279-0.48 0.54-0.027 0.205 0.047 0.405 0.189 0.545L33.568 26.73l-17.45 24.901c-0.011 0.015-0.016 0.03-0.025 0.046-0.009 0.018-0.02 0.034-0.028 0.053-0.015 0.031-0.025 0.063-0.035 0.097-0.004 0.016-0.01 0.033-0.014 0.05-0.001 0.006-0.004 0.01-0.005 0.015L8.845 93.109c-0.047 0.275 0.086 0.548 0.331 0.682 0.097 0.052 0.202 0.077 0.308 0.077 0.161 0 0.32-0.061 0.443-0.176l14.714-13.781 5.666 18.435C30.387 98.606 30.621 99 30.892 99c0.011 0 0.022 0 0.034 0 0.258 0 0.492-0.352 0.595-0.591l9.937-23.237 14.918 17.822c0.124 0.149 0.307 0.209 0.497 0.209 0.043 0 0.086-0.018 0.13-0.026l33.643-6.854c0.231-0.048 0.418-0.221 0.489-0.445S91.146 85.403 90.984 85.233zM57.121 91.818l-0.134-0.161-2.252-42.558 20.268 21.252L57.276 91.785 57.121 91.818zM43.446 67.184L17.407 52.261l-0.029-0.097 0.072-0.081 36.181-3.888L43.446 67.184zM40.26 22.928c-0.567 1.339-1.731 3.882-2.49 4.731L35.4 30.281l-1.636-1.572 4.872-6.952C39.281 22.2 39.828 22.595 40.26 22.928zM54.037 45.393c-2.61-5.521-9.244-19.325-11.675-22.275 2.481-2.638 5.759-7.867 7.762-12.526 2.446 3.513 3.925 8.302 4.639 11.107C54.906 28.038 54.665 35.952 54.037 45.393zM38.556 28.721l14.563 17.764c0.233 0.494 0.449 0.952 0.644 1.371l-35.987 3.868L38.556 28.721zM52.548 45.275L38.775 28.476c0.854-0.99 1.943-3.351 2.504-4.637C43.183 25.942 49.156 38.129 52.548 45.275zM35.184 30.521L23.197 43.79l10.379-14.812L35.184 30.521zM16.827 54.762l5.585 17.974L10.459 91.398 16.827 54.762zM53.845 10.451c0.455 2.609 0.75 5.902 0.88 9.862-0.824-2.913-2.263-6.999-4.45-10.071 0.886-2.117 1.49-4.093 1.621-5.632C52.55 5.527 53.277 7.204 53.845 10.451zM50.628 3.486c0.251 0.136 0.59 0.327 0.968 0.748-0.047 1.51-0.634 3.53-1.535 5.715-0.022-0.03-0.044-0.061-0.065-0.09-2.495-3.302-5.496-5.483-9.562-6.913C44.776 2.549 48.564 2.588 50.628 3.486zM39.638 3.023c4.356 1.401 7.507 3.601 10.098 7.031 0.061 0.081 0.118 0.164 0.178 0.245-1.97 4.64-5.271 9.917-7.766 12.575-0.009-0.01-0.021-0.024-0.03-0.034-2.163-2.395-19.7-12.683-24.85-15.679C21.083 6.231 31.241 3.879 39.638 3.023zM19.197 9.79c5.66 3.322 13.695 8.132 18.366 11.242l-3.237 4.618L19.197 9.79zM11.386 90.552L22.537 73.14l1.677 5.396L11.386 90.552zM31.023 96.086L17.549 52.715l25.758 14.762L31.023 96.086zM42.03 73.735l2.522-5.873 9.877-18.414 2.212 41.794L42.03 73.735zM57.782 91.684l17.445-21.095 14.01 14.69L57.782 91.684z" fill="#7851a9" data-fill-palette-color="quaternary"></path></svg></g></svg></g><g><path d="M29.796 88.447c-0.84 2.246-2.146 4.025-3.918 5.337-1.771 1.312-3.752 2.094-5.942 2.347-2.197 0.251-4.337-0.013-6.42-0.793v0c-2.177-0.815-4.011-2.069-5.502-3.764-1.49-1.695-2.46-3.624-2.909-5.788-0.441-2.168-0.259-4.328 0.546-6.48v0c0.514-1.374 1.225-2.557 2.132-3.547 0.901-0.993 1.898-1.679 2.991-2.057 1.084-0.374 2.16-0.362 3.226 0.037v0c1.016 0.401 1.72 1.044 2.112 1.927 0.388 0.875 0.42 1.745 0.096 2.611v0c-0.2 0.533-0.538 0.997-1.014 1.391-0.476 0.394-1.056 0.663-1.74 0.809v0l-0.452-2.637c0.39-0.105 0.63-0.279 0.722-0.524v0c0.075-0.201 0.046-0.409-0.088-0.623-0.134-0.215-0.346-0.376-0.635-0.484v0c-0.621-0.232-1.264-0.158-1.929 0.222-0.661 0.389-1.258 0.953-1.791 1.691-0.527 0.74-0.94 1.508-1.238 2.305v0c-0.54 1.443-0.634 2.985-0.282 4.626 0.348 1.632 1.114 3.131 2.298 4.497 1.184 1.366 2.677 2.386 4.478 3.059v0c1.751 0.655 3.504 0.871 5.261 0.649 1.753-0.231 3.307-0.866 4.661-1.904 1.348-1.041 2.329-2.383 2.945-4.027v0c0.589-1.575 0.757-3.19 0.503-4.844-0.256-1.648-0.91-2.998-1.962-4.05v0l1.913-1.87c1.341 1.367 2.217 3.108 2.628 5.221 0.411 2.114 0.181 4.334-0.69 6.663z" fill="#ffffff" data-fill-palette-color="primary"></path><path d="M23.998 53.144c-0.39 0.477-0.576 0.875-0.558 1.192v0c0.001 0.338 0.204 0.703 0.611 1.095v0l-1.714 2.052c-1.1-0.898-1.668-1.929-1.705-3.092v0c-0.044-0.953 0.369-1.961 1.237-3.025v0l5.13-6.281c0.72-0.882 1.499-1.518 2.335-1.907v0c1.191-0.558 2.513-0.716 3.966-0.472 1.457 0.239 2.764 0.83 3.922 1.775v0c0.97 0.792 1.68 1.74 2.13 2.842 0.449 1.102 0.598 2.249 0.447 3.44v0c-0.048 0.324-0.17 0.7-0.365 1.13-0.191 0.424-0.419 0.799-0.686 1.126v0c0.346-0.202 0.806-0.298 1.378-0.289v0l1.903 0.036 6.307 0.428c0.32 0.011 0.563-0.085 0.728-0.288v0c0.225-0.275 0.236-0.586 0.034-0.932v0l2.632-0.744c0.188 0.586 0.225 1.191 0.112 1.817-0.113 0.626-0.364 1.177-0.754 1.654v0c-0.36 0.441-0.798 0.771-1.314 0.99-0.515 0.228-1.069 0.329-1.662 0.303v0l-6.986-0.437c-0.244-0.009-0.704-0.038-1.381-0.089-0.676-0.051-1.255 0.043-1.735 0.282-0.486 0.235-0.993 0.638-1.521 1.211v0l-2.125-1.735 1.71-2.094c0.881-1.079 1.262-2.191 1.142-3.337-0.125-1.14-0.737-2.159-1.837-3.056v0c-1.1-0.898-2.249-1.339-3.448-1.324-1.193 0.02-2.171 0.498-2.933 1.432v0l-3.242 3.97 16.86 13.767-1.844 2.257z" fill="#ffffff" data-fill-palette-color="primary"></path><path d="M62.563 44.988c-0.781 0.494-1.536 0.698-2.265 0.611-0.728-0.086-1.36-0.396-1.895-0.929v0l1.168-2.082c0.221 0.225 0.455 0.362 0.701 0.412 0.25 0.056 0.473 0.022 0.671-0.103v0c0.198-0.125 0.32-0.309 0.365-0.552 0.048-0.237 0.043-0.534-0.018-0.892v0l-3.767-22.598 1.019-0.645 21.902 15.137-2.616 1.655-6.969-4.891-7.814 4.941 1.096 6.453c0.123 0.683 0.024 1.348-0.296 1.994-0.317 0.652-0.744 1.148-1.282 1.489zM62.538 32.257l5.895-3.727-7.716-5.809-0.345-0.413 0.26 0.466z" fill="#ffffff" data-fill-palette-color="primary"></path><path d="M86.946 8.359c-0.595 0.16-0.978 0.373-1.149 0.641v0c-0.216 0.28-0.251 0.695-0.103 1.245v0l-2.582 0.692c-0.42-1.386-0.291-2.561 0.386-3.527v0c0.519-0.805 1.442-1.385 2.769-1.741v0l15.384-4.125 0.7 2.611-12.569 3.371 1.926 7.182 8.59-2.303 0.707 2.64-8.59 2.303 2.985 11.133-2.814 0.755z" fill="#ffffff" data-fill-palette-color="primary"></path><path d="M127.23 2.861l-4.931-0.154c-0.261-0.008-0.471 0.062-0.63 0.212-0.159 0.149-0.242 0.341-0.25 0.575v0c-0.002 0.074 0.017 0.205 0.059 0.394v0l-2.773-0.087c-0.031-0.524 0.042-1.038 0.219-1.541 0.183-0.504 0.472-0.937 0.865-1.3v0c0.339-0.325 0.725-0.571 1.16-0.738 0.434-0.161 0.875-0.234 1.324-0.22v0l15.99 0.499-0.084 2.702-8.036-0.251-0.678 21.716-2.913-0.091z" fill="#ffffff" data-fill-palette-color="primary"></path><path d="M158.383 31.734c-2.214-0.793-4.022-2.002-5.424-3.627-1.408-1.628-2.306-3.49-2.694-5.588-0.392-2.106-0.206-4.267 0.56-6.483v0l0.338-0.979c0.735-2.128 1.92-3.905 3.554-5.332 1.636-1.433 3.514-2.365 5.633-2.796 2.121-0.437 4.224-0.295 6.307 0.425v0c2.102 0.726 3.847 1.914 5.233 3.562 1.389 1.642 2.291 3.534 2.707 5.677 0.417 2.136 0.259 4.268-0.477 6.395v0l-0.338 0.979c-0.766 2.216-1.958 4.048-3.578 5.494-1.613 1.449-3.458 2.378-5.534 2.787-2.07 0.412-4.166 0.241-6.287-0.514zM159.161 29.143c1.634 0.564 3.25 0.676 4.849 0.336 1.597-0.334 3.016-1.067 4.257-2.197 1.239-1.124 2.156-2.548 2.751-4.27v0l0.338-0.979c0.564-1.634 0.699-3.285 0.404-4.953-0.3-1.677-0.976-3.155-2.031-4.433-1.048-1.276-2.379-2.193-3.993-2.751v0c-1.589-0.549-3.187-0.644-4.792-0.284-1.606 0.36-3.038 1.109-4.296 2.247-1.256 1.133-2.166 2.516-2.731 4.15v0l-0.338 0.978c-0.595 1.722-0.749 3.409-0.462 5.061 0.279 1.656 0.946 3.109 2.003 4.36 1.06 1.259 2.408 2.171 4.041 2.735z" fill="#ffffff" data-fill-palette-color="primary"></path><path d="M195.199 25.776c-0.49-0.374-0.893-0.548-1.209-0.52v0c-0.338 0.012-0.696 0.227-1.076 0.645v0l-2.105-1.647c0.863-1.128 1.875-1.729 3.036-1.803v0c0.951-0.074 1.972 0.306 3.062 1.14v0l6.243 4.774c1.149 0.879 1.942 1.911 2.377 3.095 0.44 1.189 0.531 2.422 0.271 3.699-0.265 1.273-0.837 2.484-1.717 3.634v0c-1.567 2.049-3.342 3.146-5.325 3.291-1.984 0.136-3.937-0.531-5.858-2.001v0c-0.66-0.505-1.296-1.139-1.91-1.903v0l1.581-2.068c0.691 0.739 1.311 1.319 1.859 1.738v0c2.821 2.157 5.26 1.889 7.32-0.803v0c1.021-1.336 1.459-2.591 1.312-3.767-0.146-1.166-0.794-2.188-1.943-3.067v0l-3.561-2.723-13.197 17.259-2.315-1.771z" fill="#ffffff" data-fill-palette-color="primary"></path><path d="M203.001 62.105l18.701-15.718 1.875 2.231-18.701 15.718z" fill="#ffffff" data-fill-palette-color="primary"></path><path d="M212.748 77.903c-0.377-0.844-0.47-1.621-0.28-2.329 0.19-0.708 0.587-1.289 1.193-1.742v0l1.892 1.455c-0.254 0.187-0.424 0.398-0.509 0.635-0.091 0.239-0.089 0.465 0.006 0.679v0c0.096 0.214 0.26 0.361 0.494 0.44 0.227 0.082 0.523 0.119 0.886 0.111v0l22.904-0.482 0.492 1.101-18.127 19.5-1.261-2.826 5.841-6.194-3.767-8.443-6.543 0.158c-0.694 0.023-1.338-0.17-1.932-0.58-0.6-0.407-1.03-0.901-1.289-1.483zM225.35 79.708l2.842 6.369 6.858-6.802 0.458-0.281-0.499 0.189z" fill="#ffffff" data-fill-palette-color="primary"></path><path d="M9.091 161.251l19.002-6.231 3.998 12.194-1.556 0.511-3.451-10.523-6.607 2.166 2.539 7.744-1.557 0.511-2.539-7.744-7.725 2.532 3.632 11.077-1.557 0.511z" fill="#ffffff" data-fill-palette-color="primary"></path><path d="M22.009 186.86c-0.843-0.068-1.602-0.361-2.278-0.878-0.676-0.517-1.23-1.192-1.662-2.025v0c-0.599-1.154-0.821-2.31-0.668-3.469 0.159-1.162 0.63-2.225 1.413-3.189 0.783-0.965 1.795-1.769 3.038-2.415v0c2.046-1.061 3.983-1.327 5.813-0.797 1.839 0.533 3.327 1.896 4.466 4.091v0c0.315 0.607 0.639 1.34 0.973 2.201 0.339 0.858 0.579 1.632 0.717 2.322v0l-19.436 10.085-0.805-1.552zM19.46 183.213c0.518 0.999 1.277 1.719 2.275 2.159 0.995 0.435 2.005 0.454 3.03 0.058v0l7.154-3.712c-0.324-1.017-0.692-1.924-1.106-2.72v0c-1.848-3.562-4.512-4.441-7.99-2.636v0c-1.629 0.845-2.763 1.875-3.401 3.089-0.641 1.223-0.628 2.477 0.038 3.762z" fill="#ffffff" data-fill-palette-color="primary"></path><path d="M27.949 199.359c-0.973-1.314-1.384-2.556-1.233-3.726 0.155-1.165 0.843-2.2 2.065-3.104v0l8.134-6.021 1.04 1.405-7.875 5.83c-0.878 0.65-1.413 1.363-1.605 2.138-0.187 0.772 0.078 1.643 0.796 2.612v0c0.602 0.813 1.303 1.344 2.104 1.593 0.797 0.243 1.821 0.36 3.073 0.351v0l8.254-6.111 1.047 1.414-8.295 6.14c-1.222 0.905-1.923 1.895-2.103 2.97v0l-1.48-0.243c-0.007-0.528 0.104-1.053 0.336-1.573 0.232-0.53 0.523-0.983 0.871-1.357v0c-1.151 0.077-2.141-0.082-2.968-0.479-0.827-0.396-1.547-1.009-2.161-1.839z" fill="#ffffff" data-fill-palette-color="primary"></path><path d="M36.911 209.886l10.713-9.979 1.192 1.279-10.713 9.98zM49.554 199.221c-0.224-0.24-0.332-0.533-0.324-0.879 0.012-0.341 0.141-0.625 0.386-0.853v0c0.255-0.237 0.555-0.352 0.901-0.345 0.345 0.017 0.63 0.146 0.854 0.386v0c0.242 0.26 0.357 0.56 0.344 0.901-0.017 0.345-0.153 0.637-0.407 0.874v0c-0.245 0.228-0.538 0.336-0.879 0.324-0.341-0.012-0.632-0.148-0.875-0.408z" fill="#ffffff" data-fill-palette-color="primary"></path><path d="M57.697 208.677c1.026 0.862 1.682 1.856 1.969 2.982 0.292 1.121 0.258 2.27-0.101 3.447-0.36 1.168-0.987 2.282-1.879 3.343v0c-0.966 1.149-2.035 1.983-3.207 2.503-1.173 0.51-2.381 0.672-3.624 0.484-1.239-0.192-2.425-0.765-3.558-1.718v0c-0.374-0.315-1.179-1.158-2.416-2.53v0l-4.947 5.884-1.277-1.073 11.512-13.691c0.992-1.179 1.405-2.306 1.241-3.381v0l1.649-0.15c0.105 0.395 0.145 0.848 0.117 1.359-0.022 0.515-0.139 1.003-0.351 1.464v0c1.633-0.64 3.257-0.282 4.872 1.077zM48.204 218.42c1.4 1.177 2.796 1.655 4.19 1.435 1.389-0.215 2.674-1.025 3.855-2.43v0c1.112-1.323 1.739-2.678 1.881-4.064 0.137-1.391-0.334-2.539-1.41-3.444v0c-0.846-0.711-1.822-1.086-2.929-1.124-1.101-0.033-2.034 0.342-2.798 1.127v0l-5.174 6.153c1.262 1.289 2.057 2.071 2.385 2.347z" fill="#ffffff" data-fill-palette-color="primary"></path><path d="M64.38 238.369c0.974 0.478 1.807 0.659 2.498 0.544v0c0.326-0.041 0.652-0.15 0.977-0.326 0.325-0.176 0.62-0.405 0.885-0.686v0l2.533-2.629 0.891-16.366 1.66 0.815-0.976 13.917 9.131-9.914 1.633 0.801-13.74 14.514c-0.776 0.791-1.643 1.257-2.601 1.399v0c-1 0.136-2.113-0.097-3.34-0.699v0z" fill="#ffffff" data-fill-palette-color="primary"></path><path d="M88.259 241.826c-1.321-0.423-2.396-1.106-3.227-2.047-0.837-0.944-1.367-2.056-1.589-3.338-0.224-1.275-0.113-2.608 0.333-3.999v0c0.448-1.397 1.139-2.554 2.074-3.472 0.941-0.915 2.027-1.517 3.259-1.804 1.228-0.296 2.502-0.232 3.822 0.192v0c1.295 0.415 2.359 1.101 3.192 2.057 0.829 0.948 1.36 2.065 1.595 3.351 0.229 1.283 0.12 2.62-0.326 4.011v0c-0.446 1.391-1.135 2.542-2.067 3.453-0.937 0.903-2.019 1.502-3.247 1.797-1.232 0.287-2.505 0.22-3.819-0.201zM88.77 240.333c1.537 0.493 2.945 0.36 4.222-0.398 1.277-0.758 2.189-1.989 2.735-3.692v0c0.364-1.136 0.471-2.202 0.32-3.201-0.151-0.998-0.538-1.865-1.161-2.599-0.623-0.734-1.435-1.262-2.437-1.583v0c-1.021-0.327-2.001-0.374-2.941-0.141-0.934 0.235-1.756 0.725-2.466 1.468-0.71 0.743-1.244 1.673-1.601 2.789v0c-0.356 1.11-0.458 2.164-0.307 3.163 0.149 1.005 0.536 1.871 1.161 2.599 0.629 0.736 1.454 1.268 2.475 1.595z" fill="#ffffff" data-fill-palette-color="primary"></path><path d="M106.16 245.852c-1.616-0.246-2.783-0.837-3.502-1.773-0.712-0.935-0.953-2.154-0.724-3.658v0l1.522-10.004 1.728 0.263-1.473 9.687c-0.164 1.08-0.041 1.962 0.369 2.648 0.412 0.679 1.214 1.11 2.406 1.291v0c1 0.152 1.872 0.034 2.616-0.355 0.737-0.389 1.546-1.029 2.426-1.918v0l1.545-10.153 1.738 0.265-1.552 10.203c-0.229 1.503-0.028 2.7 0.603 3.588v0l-1.22 0.871c-0.378-0.369-0.668-0.82-0.872-1.352-0.209-0.54-0.322-1.066-0.34-1.576v0c-0.762 0.867-1.576 1.451-2.442 1.753-0.866 0.302-1.809 0.375-2.828 0.22z" fill="#ffffff" data-fill-palette-color="primary"></path><path d="M125.96 232.093c0.59 0.008 1.174 0.106 1.755 0.294v0l-0.021 1.628c-0.568-0.141-1.133-0.216-1.696-0.223v0c-0.991-0.013-1.802 0.221-2.431 0.702v0c-0.629 0.481-1.194 1.164-1.695 2.049v0l-0.134 10.41-1.758-0.023 0.132-10.229c0.02-1.541-0.374-2.678-1.183-3.412v0l1.181-1.151c0.352 0.219 0.68 0.545 0.982 0.978 0.309 0.433 0.528 0.915 0.655 1.445v0c0.561-0.891 1.115-1.5 1.662-1.827v0c0.689-0.44 1.539-0.654 2.551-0.641z" fill="#ffffff" data-fill-palette-color="primary"></path><path d="M149.205 244.278c-2.081 0.425-3.849 0.12-5.305-0.916-1.455-1.029-2.409-2.653-2.863-4.871v0c-0.313-1.529-0.304-2.94 0.027-4.231 0.339-1.286 0.967-2.359 1.887-3.217 0.92-0.851 2.066-1.417 3.437-1.698v0c0.761-0.156 1.502-0.163 2.221-0.023 0.713 0.141 1.486 0.445 2.32 0.91v0l-0.941 1.27c-0.523-0.351-1.04-0.574-1.552-0.668-0.505-0.095-1.082-0.076-1.732 0.057v0c-1.582 0.323-2.729 1.149-3.442 2.478-0.713 1.329-0.874 2.948-0.484 4.858v0c0.358 1.752 1.079 3.021 2.163 3.805 1.083 0.784 2.445 1.008 4.086 0.672v0c1.398-0.286 2.816-1.041 4.255-2.265v0l0.994 1.048c-0.679 0.693-1.461 1.283-2.345 1.772-0.885 0.489-1.793 0.828-2.726 1.019z" fill="#ffffff" data-fill-palette-color="primary"></path><path d="M160.586 225.282c0.558-0.189 1.142-0.292 1.752-0.308v0l0.523 1.542c-0.582 0.056-1.14 0.174-1.673 0.355v0c-0.939 0.319-1.625 0.809-2.058 1.473v0c-0.433 0.663-0.738 1.495-0.914 2.496v0l3.344 9.859-1.666 0.565-3.286-9.688c-0.495-1.459-1.246-2.4-2.252-2.823v0l0.73-1.478c0.405 0.089 0.822 0.287 1.252 0.594 0.436 0.305 0.802 0.686 1.099 1.145v0c0.232-1.027 0.551-1.786 0.957-2.278v0c0.503-0.645 1.233-1.129 2.192-1.454z" fill="#ffffff" data-fill-palette-color="primary"></path><path d="M169.304 230.441c0.609 1.216 1.45 2.194 2.521 2.934 1.071 0.74 2.476 0.691 4.213-0.148v0c0.754-0.364 1.404-0.797 1.951-1.299 0.546-0.502 1.09-1.155 1.632-1.959v0l1.221 0.772c-0.476 0.817-1.075 1.572-1.798 2.263-0.726 0.7-1.535 1.266-2.428 1.696v0c-1.846 0.891-3.568 0.993-5.164 0.306-1.599-0.693-2.865-2.006-3.797-3.936v0c-0.6-1.243-0.936-2.524-1.007-3.844-0.078-1.316 0.169-2.533 0.738-3.648 0.561-1.119 1.448-1.971 2.66-2.556v0c1.02-0.492 2.062-0.698 3.128-0.617 1.066 0.081 2.041 0.421 2.925 1.02 0.887 0.606 1.576 1.415 2.066 2.429v0c0.137 0.284 0.249 0.538 0.335 0.764 0.09 0.232 0.163 0.431 0.221 0.597v0l0.212 0.578zM168.691 228.985l8.081-3.901c-0.043-0.135-0.118-0.315-0.226-0.538v0c-0.358-0.742-0.858-1.33-1.499-1.765-0.641-0.434-1.346-0.685-2.116-0.753-0.766-0.062-1.508 0.081-2.226 0.428v0c-1.074 0.518-1.802 1.353-2.183 2.504-0.391 1.148-0.334 2.49 0.169 4.025z" fill="#ffffff" data-fill-palette-color="primary"></path><path d="M195.554 223.035c-0.467-0.031-0.894-0.129-1.282-0.294-0.379-0.164-0.807-0.424-1.284-0.78v0c0.105 0.844-0.043 1.658-0.442 2.44-0.403 0.777-1.057 1.472-1.96 2.087v0c-1.274 0.867-2.523 1.222-3.747 1.066-1.224-0.156-2.232-0.815-3.023-1.979v0c-0.833-1.224-1.05-2.466-0.651-3.726 0.404-1.264 1.396-2.432 2.975-3.506v0l2.808-1.91-0.593-0.873c-0.656-0.964-1.354-1.538-2.096-1.722-0.738-0.179-1.541 0.027-2.41 0.619v0c-0.643 0.437-1.223 1.002-1.741 1.694-0.523 0.696-0.913 1.427-1.169 2.193v0l-1.372-0.622c0.259-0.905 0.689-1.757 1.289-2.554 0.6-0.797 1.31-1.475 2.13-2.033v0c1.307-0.889 2.525-1.231 3.653-1.026 1.132 0.211 2.125 0.945 2.981 2.202v0l3.436 5.052c0.844 1.241 1.812 1.984 2.903 2.23v0zM189.724 225.166c1.08-0.735 1.735-1.618 1.965-2.649 0.234-1.026 0.027-2.015-0.621-2.969v0l-1.232-1.811-2.468 1.679c-1.368 0.931-2.218 1.796-2.548 2.596-0.331 0.8-0.189 1.652 0.425 2.555v0c0.55 0.809 1.214 1.261 1.991 1.355 0.772 0.099 1.601-0.153 2.488-0.756z" fill="#ffffff" data-fill-palette-color="primary"></path><path d="M204.214 216.05c-1.055 0.921-2.087 1.327-3.096 1.221-1.009-0.097-2.041-0.749-3.093-1.956v0l-9.243-10.593 1.325-1.156 2.399 2.749 3.46-3.02 1.044 1.197-3.461 3.019 5.801 6.648c0.806 0.924 1.513 1.387 2.121 1.391 0.613-0.001 1.176-0.226 1.691-0.676v0c0.308-0.269 0.545-0.511 0.712-0.727 0.176-0.216 0.327-0.507 0.451-0.874v0l1.476 0.499c-0.25 0.814-0.779 1.573-1.587 2.278z" fill="#ffffff" data-fill-palette-color="primary"></path><path d="M209.682 210.143l-10.497-10.207 1.219-1.253 10.497 10.207zM198.405 198.043c-0.229 0.235-0.516 0.358-0.862 0.367-0.341 0.005-0.632-0.11-0.872-0.343v0c-0.25-0.243-0.379-0.537-0.389-0.883 0-0.346 0.114-0.636 0.343-0.872v0c0.248-0.255 0.542-0.384 0.883-0.389 0.346 0 0.644 0.121 0.893 0.364v0c0.24 0.234 0.363 0.521 0.368 0.862 0.005 0.341-0.117 0.639-0.364 0.894z" fill="#ffffff" data-fill-palette-color="primary"></path><path d="M205.602 196.377c-0.348-0.096-0.721-0.132-1.119-0.107-0.402 0.031-0.752 0.114-1.049 0.249v0l-0.463-1.565c1.08-0.423 2.382-0.396 3.905 0.081v0l9.933 2.93-7.053-11.107 1.059-1.391 8.314 13.166-1.095 1.439z" fill="#ffffff" data-fill-palette-color="primary"></path><path d="M225.251 189.863l-12.431-7.735 0.924-1.485 12.431 7.736zM211.654 180.444c-0.173 0.279-0.428 0.46-0.763 0.542-0.332 0.077-0.64 0.028-0.925-0.149v0c-0.296-0.184-0.485-0.444-0.569-0.78-0.074-0.338-0.024-0.646 0.15-0.925v0c0.188-0.301 0.447-0.491 0.78-0.568 0.338-0.074 0.655-0.019 0.95 0.166v0c0.284 0.177 0.465 0.432 0.543 0.763 0.077 0.332 0.022 0.649-0.166 0.951z" fill="#ffffff" data-fill-palette-color="primary"></path><path d="M231.625 178.867c-0.628 1.252-1.429 2.019-2.403 2.303-0.971 0.292-2.172 0.08-3.604-0.638v0l-12.566-6.303 0.788-1.572 3.261 1.635 2.059-4.105 1.419 0.712-2.059 4.105 7.887 3.956c1.096 0.55 1.926 0.711 2.489 0.484 0.567-0.233 1.003-0.655 1.309-1.266v0c0.183-0.365 0.311-0.68 0.383-0.943 0.081-0.267 0.11-0.593 0.087-0.98v0l1.555-0.097c0.077 0.848-0.125 1.751-0.605 2.709z" fill="#ffffff" data-fill-palette-color="primary"></path><path d="M240.235 173.264c0.359-1.024 0.44-1.873 0.242-2.545v0c-0.08-0.319-0.227-0.63-0.44-0.931-0.214-0.302-0.475-0.568-0.785-0.797v0l-2.913-2.203-16.355 1.061 0.611-1.745 13.935-0.685-10.93-7.888 0.602-1.716 16.045 11.916c0.877 0.677 1.443 1.482 1.698 2.416v0c0.254 0.976 0.155 2.11-0.297 3.4v0z" fill="#ffffff" data-fill-palette-color="primary"></path><path d="M8.875 127.098c0-1.584 1.284-2.869 2.869-2.868 1.584 0 2.869 1.284 2.869 2.868 0 1.584-1.284 2.869-2.869 2.869-1.584 0-2.869-1.284-2.869-2.869z" fill="#ffffff" data-fill-palette-color="primary"></path><path d="M232.229 127.098c0-1.584 1.284-2.869 2.869-2.868 1.584 0 2.869 1.284 2.868 2.868 0 1.584-1.284 2.869-2.868 2.869-1.584 0-2.869-1.284-2.869-2.869z" fill="#ffffff" data-fill-palette-color="primary"></path></g></svg></g></svg></g></svg></g></svg></g></svg></g><defs></defs></svg><rect width="246.95280000000002" height="246.95280000000002" fill="none" stroke="none" visibility="hidden"></rect></g></svg></g></svg>
